<?xml version="1.0" encoding="UTF-8"?>
<svg xmlns="http://www.w3.org/2000/svg" style="display: none;">
  <symbol viewBox="0 0 24 24" id="mdt-perm_contact_calendar"><path d="M16 5H5v14h14V5h-3zm-4 1c1.65 0 3 1.35 3 3s-1.35 3-3 3-3-1.35-3-3 1.35-3 3-3zm6 12H6v-1.53c0-2.5 3.97-3.58 6-3.58s6 1.08 6 3.58V18z" opacity=".3"/><path d="M20.84 4.22c-.05-.12-.11-.23-.18-.34-.14-.21-.33-.4-.54-.54-.11-.07-.22-.13-.34-.18-.24-.1-.5-.16-.78-.16h-1V1h-2v2H8V1H6v2H5c-.42 0-.8.13-1.12.34-.21.14-.4.33-.54.54-.07.11-.13.22-.18.34-.1.24-.16.5-.16.78v14a2 2 0 0 0 2 2h14c.28 0 .54-.06.78-.16.12-.05.23-.11.34-.18.21-.14.4-.33.54-.54.21-.32.34-.71.34-1.12V5c0-.28-.06-.54-.16-.78zM19 19H5V5h14v14zm-7-6.12c-2.03 0-6 1.08-6 3.58V18h12v-1.53c0-2.51-3.97-3.59-6-3.59zM8.31 16c.69-.56 2.38-1.12 3.69-1.12s3.01.56 3.69 1.12H8.31zM12 12c1.65 0 3-1.35 3-3s-1.35-3-3-3-3 1.35-3 3 1.35 3 3 3zm0-4c.55 0 1 .45 1 1s-.45 1-1 1-1-.45-1-1 .45-1 1-1z"/></symbol>
  <symbol viewBox="0 0 24 24" id="mdt-badge"><path d="M14 13.5h4V12h-4v1.5zm0 3h4V15h-4v1.5zM20 7h-5V4c0-1.1-.9-2-2-2h-2c-1.1 0-2 .9-2 2v3H4c-1.1 0-2 .9-2 2v11c0 1.1.9 2 2 2h16c1.1 0 2-.9 2-2V9c0-1.1-.9-2-2-2zm-9-3h2v5h-2V4zm9 16H4V9h5c0 1.1.9 2 2 2h2c1.1 0 2-.9 2-2h5v11zM9 15c.83 0 1.5-.67 1.5-1.5S9.83 12 9 12s-1.5.67-1.5 1.5S8.17 15 9 15zm2.08 1.18c-.64-.28-1.34-.43-2.08-.43s-1.44.15-2.08.43c-.56.24-.92.78-.92 1.39V18h6v-.43c0-.61-.36-1.15-.92-1.39z"/><path d="M13 11h-2c-1.1 0-2-.9-2-2H4v11h16V9h-5c0 1.1-.9 2-2 2zm-4 1c.83 0 1.5.67 1.5 1.5S9.83 15 9 15s-1.5-.67-1.5-1.5S8.17 12 9 12zm3 6H6v-.43c0-.6.36-1.15.92-1.39.64-.28 1.34-.43 2.08-.43s1.44.15 2.08.43c.55.24.92.78.92 1.39V18zm6-1.5h-4V15h4v1.5zm0-3h-4V12h4v1.5z" opacity=".3"/></symbol>
  <symbol viewBox="0 0 24 24" id="mdt-contrast"><path d="M12 22c5.52 0 10-4.48 10-10S17.52 2 12 2 2 6.48 2 12s4.48 10 10 10zm1-17.93c3.94.49 7 3.85 7 7.93s-3.05 7.44-7 7.93V4.07z"/></symbol>
  <symbol viewBox="0 0 24 24" id="mdt-format_align_left"><path d="M3 19h18v2H3zM3 7h12v2H3zm0-4h18v2H3zm0 12h12v2H3zm0-4h18v2H3z"/></symbol>
  <symbol viewBox="0 0 24 24" id="mdt-medical_services"><path d="M4 20h16V8H4v12zm4-7h3v-3h2v3h3v2h-3v3h-2v-3H8v-2z" opacity=".3"/><path d="M20 6h-4V4c0-1.1-.9-2-2-2h-4c-1.1 0-2 .9-2 2v2H4c-1.1 0-2 .9-2 2v12c0 1.1.9 2 2 2h16c1.1 0 2-.9 2-2V8c0-1.1-.9-2-2-2zM10 4h4v2h-4V4zm10 16H4V8h16v12z"/><path d="M11 18h2v-3h3v-2h-3v-3h-2v3H8v2h3z"/></symbol>
  <symbol viewBox="0 0 24 24" id="mdt-anchor"><path d="m17 15 1.55 1.55c-.96 1.69-3.33 3.04-5.55 3.37V11h3V9h-3V7.82C14.16 7.4 15 6.3 15 5c0-1.65-1.35-3-3-3S9 3.35 9 5c0 1.3.84 2.4 2 2.82V9H8v2h3v8.92c-2.22-.33-4.59-1.68-5.55-3.37L7 15l-4-3v3c0 3.88 4.92 7 9 7s9-3.12 9-7v-3l-4 3zM12 4c.55 0 1 .45 1 1s-.45 1-1 1-1-.45-1-1 .45-1 1-1z"/></symbol>
  <symbol viewBox="0 0 24 24" id="mdt-keyboard_double_arrow_down"><path d="M18 6.41 16.59 5 12 9.58 7.41 5 6 6.41l6 6z"/><path d="m18 13-1.41-1.41L12 16.17l-4.59-4.58L6 13l6 6z"/></symbol>
  <symbol viewBox="0 0 24 24" id="mdt-keyboard_double_arrow_left"><path d="M17.59 18 19 16.59 14.42 12 19 7.41 17.59 6l-6 6z"/><path d="m11 18 1.41-1.41L7.83 12l4.58-4.59L11 6l-6 6z"/></symbol>
  <symbol viewBox="0 0 24 24" id="mdt-keyboard_double_arrow_right"><path d="M6.41 6 5 7.41 9.58 12 5 16.59 6.41 18l6-6z"/><path d="m13 6-1.41 1.41L16.17 12l-4.58 4.59L13 18l6-6z"/></symbol>
  <symbol viewBox="0 0 24 24" id="mdt-keyboard_double_arrow_up"><path d="M6 17.59 7.41 19 12 14.42 16.59 19 18 17.59l-6-6z"/><path d="m6 11 1.41 1.41L12 7.83l4.59 4.58L18 11l-6-6z"/></symbol>
  <symbol viewBox="0 0 24 24" id="mdt-keyboard_arrow_down"><path d="M7.41 8.59 12 13.17l4.59-4.58L18 10l-6 6-6-6 1.41-1.41z"/></symbol>
  <symbol viewBox="0 0 24 24" id="mdt-keyboard_arrow_left"><path d="M15.41 16.59 10.83 12l4.58-4.59L14 6l-6 6 6 6 1.41-1.41z"/></symbol>
  <symbol viewBox="0 0 24 24" id="mdt-keyboard_arrow_right"><path d="M8.59 16.59 13.17 12 8.59 7.41 10 6l6 6-6 6-1.41-1.41z"/></symbol>
  <symbol viewBox="0 0 24 24" id="mdt-keyboard_arrow_up"><path d="M7.41 15.41 12 10.83l4.59 4.58L18 14l-6-6-6 6 1.41 1.41z"/></symbol>
  <symbol viewBox="0 0 24 24" id="mdt-inventory_2"><path d="M4 7h16V3.98L4 4zm1 13h14V9H5v11zm4-8h6v2H9v-2z" opacity=".3"/><path d="M20 2H4c-1 0-2 .9-2 2v3.01c0 .72.43 1.34 1 1.69V20c0 1.1 1.1 2 2 2h14c.9 0 2-.9 2-2V8.7c.57-.35 1-.97 1-1.69V4c0-1.1-1-2-2-2zm-1 18H5V9h14v11zm1-13H4V4l16-.02V7z"/><path d="M9 12h6v2H9z"/></symbol>
  <symbol viewBox="0 0 24 24" id="mdt-arrow_downward"><path d="m20 12-1.41-1.41L13 16.17V4h-2v12.17l-5.58-5.59L4 12l8 8 8-8z"/></symbol>
  <symbol viewBox="0 0 24 24" id="mdt-arrow_back"><path d="M20 11H7.83l5.59-5.59L12 4l-8 8 8 8 1.41-1.41L7.83 13H20v-2z"/></symbol>
  <symbol viewBox="0 0 24 24" id="mdt-arrow_forward"><path d="m12 4-1.41 1.41L16.17 11H4v2h12.17l-5.58 5.59L12 20l8-8-8-8z"/></symbol>
  <symbol viewBox="0 0 24 24" id="mdt-arrow_upward"><path d="m4 12 1.41 1.41L11 7.83V20h2V7.83l5.58 5.59L20 12l-8-8-8 8z"/></symbol>
  <symbol viewBox="0 0 24 24" id="mdt-sync_alt"><path d="m18 12 4-4-4-4v3H3v2h15zM6 12l-4 4 4 4v-3h15v-2H6z"/></symbol>
  <symbol viewBox="0 0 24 24" id="mdt-height"><path d="M13 6.99h3L12 3 8 6.99h3v10.02H8L12 21l4-3.99h-3z"/></symbol>
  <symbol viewBox="0 0 24 24" id="mdt-emergency"><path d="m18.43 16.87-4.68-2.7c-.33-.2-.75.04-.75.43V20h-2v-5.4c0-.38-.42-.63-.75-.43l-4.68 2.7-1-1.73 4.68-2.7c.33-.19.33-.67 0-.87l-4.68-2.7 1-1.73 4.68 2.7c.33.19.75-.05.75-.44V4h2v5.4c0 .38.42.63.75.43l4.68-2.7 1 1.73-4.68 2.7c-.33.19-.33.67 0 .87l4.68 2.7-1 1.74z" opacity=".3"/><path d="M21.29 13.9 18 12l3.29-1.9c.48-.28.64-.89.37-1.37l-2-3.46a1.01 1.01 0 0 0-1.37-.37L15 6.8V3c0-.55-.45-1-1-1h-4c-.55 0-1 .45-1 1v3.8L5.71 4.9a1.01 1.01 0 0 0-1.37.37l-2 3.46c-.28.48-.11 1.09.37 1.37L6 12l-3.29 1.9c-.48.28-.64.89-.37 1.37l2 3.46c.28.48.89.64 1.37.37L9 17.2V21c0 .55.45 1 1 1h4c.55 0 1-.45 1-1v-3.8l3.29 1.9c.48.28 1.09.11 1.37-.37l2-3.46c.28-.48.11-1.09-.37-1.37zm-2.86 2.97-4.68-2.7c-.33-.2-.75.04-.75.43V20h-2v-5.4c0-.38-.42-.63-.75-.43l-4.68 2.7-1-1.73 4.68-2.7c.33-.19.33-.67 0-.87l-4.68-2.7 1-1.73 4.68 2.7c.33.19.75-.05.75-.44V4h2v5.4c0 .38.42.63.75.43l4.68-2.7 1 1.73-4.68 2.7c-.33.19-.33.67 0 .87l4.68 2.7-1 1.74z"/></symbol>
  <symbol viewBox="0 0 24 24" id="mdt-alternate_email"><path fill-opacity=".9" d="M12 21.95h5v-2h-5c-4.34 0-8-3.66-8-8s3.66-8 8-8 8 3.66 8 8v1.43c0 .79-.71 1.57-1.5 1.57s-1.5-.78-1.5-1.57v-1.43c0-2.76-2.24-5-5-5s-5 2.24-5 5 2.24 5 5 5c1.38 0 2.64-.56 3.54-1.47.65.89 1.77 1.47 2.96 1.47 1.97 0 3.5-1.6 3.5-3.57v-1.43c0-5.52-4.48-10-10-10s-10 4.48-10 10 4.48 10 10 10zm0-7c-1.66 0-3-1.34-3-3s1.34-3 3-3 3 1.34 3 3-1.34 3-3 3z"/></symbol>
  <symbol viewBox="0 0 24 24" id="mdt-fast_rewind"><path d="M9 14.14V9.86L5.97 12zm9 0V9.86L14.97 12z" opacity=".3"/><path d="m11 6-8.5 6 8.5 6V6zm-2 8.14L5.97 12 9 9.86v4.28zM20 6l-8.5 6 8.5 6V6zm-2 8.14L14.97 12 18 9.86v4.28z"/></symbol>
  <symbol viewBox="0 0 24 24" id="mdt-block"><path d="M12 2C6.48 2 2 6.48 2 12s4.48 10 10 10 10-4.48 10-10S17.52 2 12 2zM4 12c0-4.42 3.58-8 8-8 1.85 0 3.55.63 4.9 1.69L5.69 16.9A7.902 7.902 0 0 1 4 12zm8 8c-1.85 0-3.55-.63-4.9-1.69L18.31 7.1A7.902 7.902 0 0 1 20 12c0 4.42-3.58 8-8 8z"/></symbol>
  <symbol viewBox="0 0 24 24" id="mdt-menu"><path d="M3 18h18v-2H3v2zm0-5h18v-2H3v2zm0-7v2h18V6H3z"/></symbol>
  <symbol viewBox="0 0 24 24" id="mdt-bed"><path d="M19 8c0-.55-.45-1-1-1h-4c-.55 0-1 .45-1 1v2h6V8zm-8 0c0-.55-.45-1-1-1H6c-.55 0-1 .45-1 1v2h6V8zm8 4H5c-.55 0-1 .45-1 1v2h16v-2c0-.55-.45-1-1-1z" opacity=".3"/><path d="M21 10.78V8c0-1.65-1.35-3-3-3h-4c-.77 0-1.47.3-2 .78-.53-.48-1.23-.78-2-.78H6C4.35 5 3 6.35 3 8v2.78c-.61.55-1 1.34-1 2.22v6h2v-2h16v2h2v-6c0-.88-.39-1.67-1-2.22zM13 8c0-.55.45-1 1-1h4c.55 0 1 .45 1 1v2h-6V8zM5 8c0-.55.45-1 1-1h4c.55 0 1 .45 1 1v2H5V8zm15 7H4v-2c0-.55.45-1 1-1h14c.55 0 1 .45 1 1v2z"/></symbol>
  <symbol viewBox="0 0 24 24" id="mdt-notifications_off"><path d="M8 17h8v-.24L8.34 9.1C8.12 9.68 8 10.32 8 11v6zm4-10.5c-.19 0-.37.03-.55.06L16 11.1V11c0-2.48-1.51-4.5-4-4.5z" opacity=".3"/><path d="M12 22c1.1 0 2-.9 2-2h-4c0 1.1.9 2 2 2zm0-15.5c2.49 0 4 2.02 4 4.5v.1l2 2V11c0-3.07-1.63-5.64-4.5-6.32V4c0-.83-.67-1.5-1.5-1.5s-1.5.67-1.5 1.5v.68c-.24.06-.47.15-.69.23l1.64 1.64c.18-.02.36-.05.55-.05zM5.41 3.35 4 4.76l2.81 2.81C6.29 8.57 6 9.74 6 11v5l-2 2v1h14.24l1.74 1.74 1.41-1.41L5.41 3.35zM16 17H8v-6c0-.68.12-1.32.34-1.9L16 16.76V17z"/></symbol>
  <symbol viewBox="0 0 24 24" id="mdt-notifications"><path d="M12 6.5c-2.49 0-4 2.02-4 4.5v6h8v-6c0-2.48-1.51-4.5-4-4.5z" opacity=".3"/><path d="M12 22c1.1 0 2-.9 2-2h-4c0 1.1.9 2 2 2zm6-6v-5c0-3.07-1.63-5.64-4.5-6.32V4c0-.83-.67-1.5-1.5-1.5s-1.5.67-1.5 1.5v.68C7.64 5.36 6 7.92 6 11v5l-2 2v1h16v-1l-2-2zm-2 1H8v-6c0-2.48 1.51-4.5 4-4.5s4 2.02 4 4.5v6z"/></symbol>
  <symbol viewBox="0 0 24 24" id="mdt-cake"><path d="m15.53 14.92-1.08 1.07c-1.3 1.3-3.58 1.31-4.89 0l-1.07-1.07-1.09 1.07c-.64.64-1.5 1-2.4 1.01v3h14v-3c-.9-.01-1.76-.37-2.4-1.01l-1.07-1.07zM18 11H6c-.55 0-1 .45-1 1v3.5c.51-.01.99-.21 1.34-.57l2.14-2.13 2.13 2.13c.74.74 2.03.74 2.77 0l2.14-2.13 2.13 2.13c.36.36.84.56 1.35.57V12c0-.55-.45-1-1-1z" opacity=".3"/><path d="M12 6a2 2 0 0 0 2-2c0-.38-.1-.73-.29-1.03L12 0l-1.71 2.97c-.19.3-.29.65-.29 1.03 0 1.1.9 2 2 2zm6 3h-5V7h-2v2H6c-1.66 0-3 1.34-3 3v9c0 .55.45 1 1 1h16c.55 0 1-.45 1-1v-9c0-1.66-1.34-3-3-3zm1 11H5v-3c.9-.01 1.76-.37 2.4-1.01l1.09-1.07 1.07 1.07c1.31 1.31 3.59 1.3 4.89 0l1.08-1.07 1.07 1.07c.64.64 1.5 1 2.4 1.01v3zm0-4.5c-.51-.01-.99-.2-1.35-.57l-2.13-2.13-2.14 2.13c-.74.74-2.03.74-2.77 0L8.48 12.8l-2.14 2.13c-.35.36-.83.56-1.34.57V12c0-.55.45-1 1-1h12c.55 0 1 .45 1 1v3.5z"/></symbol>
  <symbol viewBox="0 0 24 24" id="mdt-format_bold"><path d="M17.25 8c0-2.26-1.75-4-4-4H7v14h7.04c2.09 0 3.71-1.7 3.71-3.79 0-1.52-.86-2.82-2.15-3.42.97-.67 1.65-1.77 1.65-2.79zM10 6.5h3c.83 0 1.5.67 1.5 1.5s-.67 1.5-1.5 1.5h-3v-3zm3.5 9H10v-3h3.5c.83 0 1.5.67 1.5 1.5s-.67 1.5-1.5 1.5z"/></symbol>
  <symbol viewBox="0 0 24 24" id="mdt-local_library"><path d="M19 17.13v-6.95c-2.1.38-4.05 1.35-5.64 2.83L12 14.28l-1.36-1.27A11.18 11.18 0 0 0 5 10.18v6.95c2.53.34 4.94 1.3 7 2.83 2.07-1.52 4.47-2.49 7-2.83z" opacity=".3"/><circle cx="12" cy="5" r="2" opacity=".3"/><path d="M16 5c0-2.21-1.79-4-4-4S8 2.79 8 5s1.79 4 4 4 4-1.79 4-4zm-6 0c0-1.1.9-2 2-2s2 .9 2 2-.9 2-2 2-2-.9-2-2zM3 19c3.48 0 6.64 1.35 9 3.55 2.36-2.19 5.52-3.55 9-3.55V8c-3.48 0-6.64 1.35-9 3.55C9.64 9.35 6.48 8 3 8v11zm2-8.82c2.1.38 4.05 1.35 5.64 2.83L12 14.28l1.36-1.27A11.18 11.18 0 0 1 19 10.18v6.95c-2.53.34-4.93 1.3-7 2.82a15.2 15.2 0 0 0-7-2.83v-6.94z"/></symbol>
  <symbol viewBox="0 0 24 24" id="mdt-book"><path d="m13 13-3-2.25L7 13V4H6v16h12V4h-5z" opacity=".3"/><path d="M18 2H6c-1.1 0-2 .9-2 2v16c0 1.1.9 2 2 2h12c1.1 0 2-.9 2-2V4c0-1.1-.9-2-2-2zM9 4h2v5l-1-.75L9 9V4zm9 16H6V4h1v9l3-2.25L13 13V4h5v16z"/></symbol>
  <symbol viewBox="0 0 24 24" id="mdt-bookmark"><path d="m7 17.97 5-2.15 5 2.15V5H7z" opacity=".3"/><path d="M17 3H7c-1.1 0-2 .9-2 2v16l7-3 7 3V5c0-1.1-.9-2-2-2zm0 14.97-5-2.14-5 2.14V5h10v12.97z"/></symbol>
  <symbol viewBox="0 0 24 24" id="mdt-business_center"><path d="M15 17H9v-1H5v3h14v-3h-4zM4 14h5v-3h6v3h5V9H4z" opacity=".3"/><path d="M20 7h-4V5l-2-2h-4L8 5v2H4c-1.1 0-2 .9-2 2v5c0 .75.4 1.38 1 1.73V19c0 1.11.89 2 2 2h14c1.11 0 2-.89 2-2v-3.28c.59-.35 1-.99 1-1.72V9c0-1.1-.9-2-2-2zM10 5h4v2h-4V5zm9 14H5v-3h4v1h6v-1h4v3zm-8-4v-2h2v2h-2zm9-1h-5v-3H9v3H4V9h16v5z"/></symbol>
  <symbol viewBox="0 0 24 24" id="mdt-crisis_alert"><path d="M14.5 2.5c0 1.5-1.5 6-1.5 6h-2S9.5 4 9.5 2.5a2.5 2.5 0 0 1 5 0zM12 10c-1.1 0-2 .9-2 2s.9 2 2 2 2-.9 2-2-.9-2-2-2zm4.08-4.89c.18-.75.33-1.47.39-2.06A9.996 9.996 0 0 1 22 12c0 5.52-4.48 10-10 10S2 17.52 2 12c0-3.92 2.25-7.31 5.53-8.95.07.59.21 1.32.39 2.06A8.028 8.028 0 0 0 4 12c0 4.42 3.58 8 8 8s8-3.58 8-8c0-2.93-1.58-5.49-3.92-6.89zM18 12c0 3.31-2.69 6-6 6s-6-2.69-6-6c0-2 .98-3.77 2.48-4.86.23.81.65 2.07.65 2.07C8.43 9.93 8 10.92 8 12c0 2.21 1.79 4 4 4s4-1.79 4-4c0-1.08-.43-2.07-1.13-2.79 0 0 .41-1.22.65-2.07A5.998 5.998 0 0 1 18 12z"/></symbol>
  <symbol viewBox="0 0 24 24" id="mdt-calendar_month"><path d="M5 6h14v2H5z" opacity=".3"/><path d="M19 4h-1V2h-2v2H8V2H6v2H5c-1.11 0-1.99.9-1.99 2L3 20a2 2 0 0 0 2 2h14c1.1 0 2-.9 2-2V6c0-1.1-.9-2-2-2zm0 16H5V10h14v10zm0-12H5V6h14v2zM9 14H7v-2h2v2zm4 0h-2v-2h2v2zm4 0h-2v-2h2v2zm-8 4H7v-2h2v2zm4 0h-2v-2h2v2zm4 0h-2v-2h2v2z"/></symbol>
  <symbol viewBox="0 0 24 24" id="mdt-arrow_drop_down"><path d="m7 10 5 5 5-5H7z"/></symbol>
  <symbol viewBox="0 0 24 24" id="mdt-arrow_left"><path d="m14 7-5 5 5 5V7z"/></symbol>
  <symbol viewBox="0 0 24 24" id="mdt-arrow_right"><path d="m10 17 5-5-5-5v10z"/></symbol>
  <symbol viewBox="0 0 24 24" id="mdt-arrow_drop_up"><path d="m7 14 5-5 5 5H7z"/></symbol>
  <symbol viewBox="0 0 24 24" id="mdt-verified"><path d="m18.49 9.88.08-.85.18-1.95-1.9-.43-.84-.19-.44-.74-.99-1.68-1.79.76-.79.34-.79-.34-1.79-.77-.99 1.68-.44.74-.84.19-1.9.43.18 1.94.08.85-.56.65-1.29 1.48 1.29 1.47.56.65-.08.85-.18 1.96 1.9.43.84.19.44.74.99 1.67 1.78-.77.8-.33.79.34 1.78.77.99-1.68.44-.74.84-.19 1.9-.43-.18-1.95-.08-.85.56-.65L20.33 12l-1.29-1.47-.55-.65zm-8.4 6.84-3.8-3.81 1.48-1.48 2.32 2.33 5.85-5.87 1.48 1.48-7.33 7.35z" opacity=".3"/><path d="M23 11.99 20.56 9.2l.34-3.69-3.61-.82L15.4 1.5 12 2.96 8.6 1.5 6.71 4.69 3.1 5.5l.34 3.7L1 11.99l2.44 2.79-.34 3.7 3.61.82 1.89 3.2 3.4-1.47 3.4 1.46 1.89-3.19 3.61-.82-.34-3.69 2.44-2.8zm-3.95 1.48-.56.65.08.85.18 1.95-1.9.43-.84.19-.44.74-.99 1.68-1.78-.77-.8-.34-.79.34-1.78.77-.99-1.67-.44-.74-.84-.19-1.9-.43.18-1.96.08-.85-.56-.65L3.67 12l1.29-1.48.56-.65-.09-.86-.18-1.94 1.9-.43.84-.19.44-.74.99-1.68 1.78.77.8.34.79-.34 1.78-.77.99 1.68.44.74.84.19 1.9.43-.18 1.95-.08.85.56.65 1.29 1.47-1.28 1.48z"/><path d="m10.09 13.75-2.32-2.33-1.48 1.49 3.8 3.81 7.34-7.36-1.48-1.49z"/></symbol>
  <symbol viewBox="0 0 24 24" id="mdt-insert_chart"><path d="M19 5H5v14h14V5zM9 17H7v-7h2v7zm4 0h-2V7h2v10zm4 0h-2v-4h2v4z" opacity=".3"/><path d="M3 5v14c0 1.1.9 2 2 2h14c1.1 0 2-.9 2-2V5c0-1.1-.9-2-2-2H5c-1.1 0-2 .9-2 2zm2 0h14v14H5V5zm2 5h2v7H7zm4-3h2v10h-2zm4 6h2v4h-2z"/></symbol>
  <symbol viewBox="0 0 24 24" id="mdt-pie_chart"><path d="M4 12c0 4.07 3.06 7.44 7 7.93V4.07C7.06 4.56 4 7.93 4 12zm9 7.93A8.002 8.002 0 0 0 19.93 13H13v6.93zm0-15.86V11h6.93A8.002 8.002 0 0 0 13 4.07z" opacity=".3"/><path d="M12 2C6.48 2 2 6.48 2 12s4.48 10 10 10 10-4.48 10-10S17.52 2 12 2zm-1 17.93c-3.94-.49-7-3.86-7-7.93s3.06-7.44 7-7.93v15.86zm2 0V13h6.93A8.002 8.002 0 0 1 13 19.93zM13 11V4.07c3.61.45 6.48 3.32 6.93 6.93H13z"/></symbol>
  <symbol viewBox="0 0 24 24" id="mdt-check_circle"><path d="M12 4c-4.41 0-8 3.59-8 8s3.59 8 8 8 8-3.59 8-8-3.59-8-8-8zm-2 13-4-4 1.41-1.41L10 14.17l6.59-6.59L18 9l-8 8z" opacity=".3"/><path d="M12 2C6.48 2 2 6.48 2 12s4.48 10 10 10 10-4.48 10-10S17.52 2 12 2zm0 18c-4.41 0-8-3.59-8-8s3.59-8 8-8 8 3.59 8 8-3.59 8-8 8zm4.59-12.42L10 14.17l-2.59-2.58L6 13l4 4 8-8z"/></symbol>
  <symbol viewBox="0 0 24 24" id="mdt-check_box"><path d="M5 19h14V5H5v14zm2.41-7.4 2.58 2.58 6.59-6.59L17.99 9l-8 8L6 13.01l1.41-1.41z" opacity=".3"/><path d="M19 3H5c-1.1 0-2 .9-2 2v14c0 1.1.9 2 2 2h14c1.1 0 2-.9 2-2V5c0-1.1-.9-2-2-2zm0 16H5V5h14v14zM17.99 9l-1.41-1.42-6.59 6.59-2.58-2.57-1.42 1.41 4 3.99z"/></symbol>
  <symbol viewBox="0 0 24 24" id="mdt-check"><path d="M9 16.17 4.83 12l-1.42 1.41L9 19 21 7l-1.41-1.41L9 16.17z"/></symbol>
  <symbol viewBox="0 0 24 24" id="mdt-expand_circle_down"><path d="M12 4c-4.42 0-8 3.58-8 8s3.58 8 8 8 8-3.58 8-8-3.58-8-8-8zm0 11.5L7.5 11l1.42-1.41L12 12.67l3.08-3.08L16.5 11 12 15.5z" opacity=".3"/><path d="M15.08 9.59 12 12.67 8.92 9.59 7.5 11l4.5 4.5 4.5-4.5-1.42-1.41zM12 2C6.48 2 2 6.48 2 12s4.48 10 10 10 10-4.48 10-10S17.52 2 12 2zm0 18c-4.42 0-8-3.58-8-8s3.58-8 8-8 8 3.58 8 8-3.58 8-8 8z"/></symbol>
  <symbol viewBox="0 0 24 24" id="mdt-expand_more"><path d="M16.59 8.59 12 13.17 7.41 8.59 6 10l6 6 6-6-1.41-1.41z"/></symbol>
  <symbol viewBox="0 0 24 24" id="mdt-chevron_left"><path d="M15.41 7.41 14 6l-6 6 6 6 1.41-1.41L10.83 12l4.58-4.59z"/></symbol>
  <symbol viewBox="0 0 24 24" id="mdt-chevron_right"><path d="M10 6 8.59 7.41 13.17 12l-4.58 4.59L10 18l6-6-6-6z"/></symbol>
  <symbol viewBox="0 0 24 24" id="mdt-expand_less"><path d="m12 8-6 6 1.41 1.41L12 10.83l4.59 4.58L18 14l-6-6z"/></symbol>
  <symbol viewBox="0 0 24 24" id="mdt-lens"><path d="M12 4c-4.41 0-8 3.59-8 8s3.59 8 8 8 8-3.59 8-8-3.59-8-8-8z" opacity=".3"/><path d="M12 2C6.48 2 2 6.48 2 12s4.48 10 10 10 10-4.48 10-10S17.52 2 12 2zm0 18c-4.41 0-8-3.59-8-8s3.59-8 8-8 8 3.59 8 8-3.59 8-8 8z"/></symbol>
  <symbol viewBox="0 0 24 24" id="mdt-code"><path d="M9.4 16.6 4.8 12l4.6-4.6L8 6l-6 6 6 6 1.4-1.4zm5.2 0 4.6-4.6-4.6-4.6L16 6l6 6-6 6-1.4-1.4z"/></symbol>
  <symbol viewBox="0 0 24 24" id="mdt-settings"><path d="m19.28 8.6-.7-1.21-1.27.51-1.06.43-.91-.7c-.39-.3-.8-.54-1.23-.71l-1.06-.43-.16-1.13L12.7 4h-1.4l-.19 1.35-.16 1.13-1.06.44c-.41.17-.82.41-1.25.73l-.9.68-1.05-.42-1.27-.52-.7 1.21 1.08.84.89.7-.14 1.13c-.03.3-.05.53-.05.73s.02.43.05.73l.14 1.13-.89.7-1.08.84.7 1.21 1.27-.51 1.06-.43.91.7c.39.3.8.54 1.23.71l1.06.43.16 1.13.19 1.36h1.39l.19-1.35.16-1.13 1.06-.43c.41-.17.82-.41 1.25-.73l.9-.68 1.04.42 1.27.51.7-1.21-1.08-.84-.89-.7.14-1.13c.04-.31.05-.52.05-.73 0-.21-.02-.43-.05-.73l-.14-1.13.89-.7 1.1-.84zM12 16c-2.21 0-4-1.79-4-4s1.79-4 4-4 4 1.79 4 4-1.79 4-4 4z" opacity=".3"/><path d="M19.43 12.98c.04-.32.07-.64.07-.98 0-.34-.03-.66-.07-.98l2.11-1.65c.19-.15.24-.42.12-.64l-2-3.46a.5.5 0 0 0-.61-.22l-2.49 1c-.52-.4-1.08-.73-1.69-.98l-.38-2.65A.488.488 0 0 0 14 2h-4c-.25 0-.46.18-.49.42l-.38 2.65c-.61.25-1.17.59-1.69.98l-2.49-1a.566.566 0 0 0-.18-.03c-.17 0-.34.09-.43.25l-2 3.46c-.13.22-.07.49.12.64l2.11 1.65c-.04.32-.07.65-.07.98s.03.66.07.98l-2.11 1.65c-.19.15-.24.42-.12.64l2 3.46a.5.5 0 0 0 .61.22l2.49-1c.52.4 1.08.73 1.69.98l.38 2.65c.03.24.24.42.49.42h4c.25 0 .46-.18.49-.42l.38-2.65c.61-.25 1.17-.59 1.69-.98l2.49 1c.06.02.12.03.18.03.17 0 .34-.09.43-.25l2-3.46c.12-.22.07-.49-.12-.64l-2.11-1.65zm-1.98-1.71c.04.31.05.52.05.73 0 .21-.02.43-.05.73l-.14 1.13.89.7 1.08.84-.7 1.21-1.27-.51-1.04-.42-.9.68c-.43.32-.84.56-1.25.73l-1.06.43-.16 1.13-.2 1.35h-1.4l-.19-1.35-.16-1.13-1.06-.43c-.43-.18-.83-.41-1.23-.71l-.91-.7-1.06.43-1.27.51-.7-1.21 1.08-.84.89-.7-.14-1.13c-.03-.31-.05-.54-.05-.74s.02-.43.05-.73l.14-1.13-.89-.7-1.08-.84.7-1.21 1.27.51 1.04.42.9-.68c.43-.32.84-.56 1.25-.73l1.06-.43.16-1.13.2-1.35h1.39l.19 1.35.16 1.13 1.06.43c.43.18.83.41 1.23.71l.91.7 1.06-.43 1.27-.51.7 1.21-1.07.85-.89.7.14 1.13zM12 8c-2.21 0-4 1.79-4 4s1.79 4 4 4 4-1.79 4-4-1.79-4-4-4zm0 6c-1.1 0-2-.9-2-2s.9-2 2-2 2 .9 2 2-.9 2-2 2z"/></symbol>
  <symbol viewBox="0 0 24 24" id="mdt-view_column"><path d="M8.33 17H5V7h3.33v10zm5.34 0h-3.33V7h3.33v10zM19 17h-3.33V7H19v10z" opacity=".3"/><path d="M3 5v14h18V5H3zm5.33 12H5V7h3.33v10zm5.34 0h-3.33V7h3.33v10zM19 17h-3.33V7H19v10z"/></symbol>
  <symbol viewBox="0 0 24 24" id="mdt-speaker_notes_off"><path d="M6 11V9L4 7v10.17L5.17 16H13l-5-5H6zm2 3H6v-2h2v2zM20 4H6.66L10 7.34V6h8v2h-7.34l1 1H18v2h-4.34l5 5H20z" opacity=".3"/><path d="M20 4v12h-1.34l1.91 1.91A2.01 2.01 0 0 0 22 16V4c0-1.1-.9-2-2-2H4.66l2 2H20zM6 12h2v2H6zm12-1V9h-6.34l2 2zm0-3V6h-8v1.34l.66.66zM1.41 1.59 0 3l2 2.01V22l4-4h9l5.73 5.73 1.41-1.41L1.41 1.59zM5.17 16 4 17.17V7l2 2v2h2l5 5H5.17z"/></symbol>
  <symbol viewBox="0 0 24 24" id="mdt-comment"><path d="M20 17.17V4H4v12h14.83L20 17.17zM18 14H6v-2h12v2zm0-3H6V9h12v2zm0-3H6V6h12v2z" opacity=".3"/><path d="M4 18h14l4 4-.01-18c0-1.1-.89-2-1.99-2H4c-1.1 0-2 .9-2 2v12c0 1.1.9 2 2 2zM4 4h16v13.17L18.83 16H4V4zm2 8h12v2H6zm0-3h12v2H6zm0-3h12v2H6z"/></symbol>
  <symbol viewBox="0 0 24 24" id="mdt-forum"><path d="M15 11V4H4v8.17L5.17 11H6z" opacity=".3"/><path d="M16 13c.55 0 1-.45 1-1V3c0-.55-.45-1-1-1H3c-.55 0-1 .45-1 1v14l4-4h10zm-12-.83V4h11v7H5.17L4 12.17zM22 7c0-.55-.45-1-1-1h-2v9H6v2c0 .55.45 1 1 1h11l4 4V7z"/></symbol>
  <symbol viewBox="0 0 24 24" id="mdt-compress"><path d="M4 9h16v2H4zm12-5h-3V1h-2v3H8l4 4zM8 19h3v3h2v-3h3l-4-4zm-4-7h16v2H4z"/></symbol>
  <symbol viewBox="0 0 24 24" id="mdt-content_copy"><path d="M8 7h11v14H8z" opacity=".3"/><path d="M16 1H4c-1.1 0-2 .9-2 2v14h2V3h12V1zm3 4H8c-1.1 0-2 .9-2 2v14c0 1.1.9 2 2 2h11c1.1 0 2-.9 2-2V7c0-1.1-.9-2-2-2zm0 16H8V7h11v14z"/></symbol>
  <symbol viewBox="0 0 24 24" id="mdt-credit_card"><path d="M4 12h16v6H4zm0-6h16v2H4z" opacity=".3"/><path d="M20 4H4c-1.11 0-1.99.89-1.99 2L2 18c0 1.11.89 2 2 2h16c1.11 0 2-.89 2-2V6c0-1.11-.89-2-2-2zm0 14H4v-6h16v6zm0-10H4V6h16v2z"/></symbol>
  <symbol viewBox="0 0 24 24" id="mdt-my_location"><path d="M13 3.06V1h-2v2.06A8.994 8.994 0 0 0 3.06 11H1v2h2.06A8.994 8.994 0 0 0 11 20.94V23h2v-2.06A8.994 8.994 0 0 0 20.94 13H23v-2h-2.06A8.994 8.994 0 0 0 13 3.06zM12 19c-3.87 0-7-3.13-7-7s3.13-7 7-7 7 3.13 7 7-3.13 7-7 7z"/><circle cx="12" cy="12" r="2" opacity=".3"/><path d="M12 8c-2.21 0-4 1.79-4 4s1.79 4 4 4 4-1.79 4-4-1.79-4-4-4zm0 6c-1.1 0-2-.9-2-2s.9-2 2-2 2 .9 2 2-.9 2-2 2z"/></symbol>
  <symbol viewBox="0 0 24 24" id="mdt-view_in_ar"><path d="m13 17.17 4-2.3v-4.63l-4 2.33zM12 6.25 8.04 8.53 12 10.84l3.96-2.31zm-5 8.62 4 2.3v-4.6l-4-2.33z" opacity=".3"/><path d="M3 4c0-.55.45-1 1-1h2V1H4C2.34 1 1 2.34 1 4v2h2V4zm0 16v-2H1v2c0 1.66 1.34 3 3 3h2v-2H4c-.55 0-1-.45-1-1zM20 1h-2v2h2c.55 0 1 .45 1 1v2h2V4c0-1.66-1.34-3-3-3zm1 19c0 .55-.45 1-1 1h-2v2h2c1.66 0 3-1.34 3-3v-2h-2v2zm-2-5.13V9.13c0-.72-.38-1.38-1-1.73l-5-2.88c-.31-.18-.65-.27-1-.27s-.69.09-1 .27L6 7.39c-.62.36-1 1.02-1 1.74v5.74c0 .72.38 1.38 1 1.73l5 2.88c.31.18.65.27 1 .27s.69-.09 1-.27l5-2.88c.62-.35 1-1.01 1-1.73zm-8 2.3-4-2.3v-4.63l4 2.33v4.6zm1-6.33L8.04 8.53 12 6.25l3.96 2.28L12 10.84zm5 4.03-4 2.3v-4.6l4-2.33v4.63z"/></symbol>
  <symbol viewBox="0 0 24 24" id="mdt-chat_bubble"><path d="m4 18 2-2h14V4H4z" opacity=".3"/><path d="M20 2H4c-1.1 0-2 .9-2 2v18l4-4h14c1.1 0 2-.9 2-2V4c0-1.1-.9-2-2-2zm0 14H6l-2 2V4h16v12z"/></symbol>
  <symbol viewBox="0 0 24 24" id="mdt-favorite"><path d="M16.5 5c-1.54 0-3.04.99-3.56 2.36h-1.87C10.54 5.99 9.04 5 7.5 5 5.5 5 4 6.5 4 8.5c0 2.89 3.14 5.74 7.9 10.05l.1.1.1-.1C16.86 14.24 20 11.39 20 8.5c0-2-1.5-3.5-3.5-3.5z" opacity=".3"/><path d="M16.5 3c-1.74 0-3.41.81-4.5 2.09C10.91 3.81 9.24 3 7.5 3 4.42 3 2 5.42 2 8.5c0 3.78 3.4 6.86 8.55 11.54L12 21.35l1.45-1.32C18.6 15.36 22 12.28 22 8.5 22 5.42 19.58 3 16.5 3zm-4.4 15.55-.1.1-.1-.1C7.14 14.24 4 11.39 4 8.5 4 6.5 5.5 5 7.5 5c1.54 0 3.04.99 3.57 2.36h1.87C13.46 5.99 14.96 5 16.5 5c2 0 3.5 1.5 3.5 3.5 0 2.89-3.14 5.74-7.9 10.05z"/></symbol>
  <symbol viewBox="0 0 24 24" id="mdt-link"><path d="M17 7h-4v2h4c1.65 0 3 1.35 3 3s-1.35 3-3 3h-4v2h4c2.76 0 5-2.24 5-5s-2.24-5-5-5zm-6 8H7c-1.65 0-3-1.35-3-3s1.35-3 3-3h4V7H7c-2.76 0-5 2.24-5 5s2.24 5 5 5h4v-2zm-3-4h8v2H8z" opacity=".87"/></symbol>
  <symbol viewBox="0 0 24 24" id="mdt-notifications_none"><path d="M12 6.5c-2.49 0-4 2.02-4 4.5v6h8v-6c0-2.48-1.51-4.5-4-4.5z" opacity=".3"/><path d="M18 16v-5c0-3.07-1.63-5.64-4.5-6.32V4c0-.83-.67-1.5-1.5-1.5s-1.5.67-1.5 1.5v.68C7.64 5.36 6 7.92 6 11v5l-2 2v1h16v-1l-2-2zm-2 1H8v-6c0-2.48 1.51-4.5 4-4.5s4 2.02 4 4.5v6zm-4 5c1.1 0 2-.9 2-2h-4c0 1.1.9 2 2 2z"/></symbol>
  <symbol viewBox="0 0 24 24" id="mdt-favorite_border"><path d="M16.5 3c-1.74 0-3.41.81-4.5 2.09C10.91 3.81 9.24 3 7.5 3 4.42 3 2 5.42 2 8.5c0 3.78 3.4 6.86 8.55 11.54L12 21.35l1.45-1.32C18.6 15.36 22 12.28 22 8.5 22 5.42 19.58 3 16.5 3zm-4.4 15.55-.1.1-.1-.1C7.14 14.24 4 11.39 4 8.5 4 6.5 5.5 5 7.5 5c1.54 0 3.04.99 3.57 2.36h1.87C13.46 5.99 14.96 5 16.5 5c2 0 3.5 1.5 3.5 3.5 0 2.89-3.14 5.74-7.9 10.05z"/></symbol>
  <symbol viewBox="0 0 24 24" id="mdt-notification_important"><path d="M12 6c-2.76 0-5 2.24-5 5v7h10v-7c0-2.76-2.24-5-5-5zm1 10h-2v-2h2v2zm0-4h-2V8h2v4z" opacity=".3"/><path d="M12 23c1.1 0 1.99-.89 1.99-1.99h-3.98c0 1.1.89 1.99 1.99 1.99zm7-6v-6c0-3.35-2.36-6.15-5.5-6.83V3c0-.83-.67-1.5-1.5-1.5s-1.5.67-1.5 1.5v1.17C7.36 4.85 5 7.65 5 11v6l-2 2v1h18v-1l-2-2zm-2 1H7v-7c0-2.76 2.24-5 5-5s5 2.24 5 5v7zM11 8h2v4h-2zm0 6h2v2h-2z"/></symbol>
  <symbol viewBox="0 0 24 24" id="mdt-computer"><path d="M4 6h16v10H4z" opacity=".3"/><path d="M20 18c1.1 0 1.99-.9 1.99-2L22 6c0-1.1-.9-2-2-2H4c-1.1 0-2 .9-2 2v10c0 1.1.9 2 2 2H0v2h24v-2h-4zM4 6h16v10H4V6z"/></symbol>
  <symbol viewBox="0 0 24 24" id="mdt-close_fullscreen"><path d="M22 3.41 16.71 8.7 20 12h-8V4l3.29 3.29L20.59 2 22 3.41zM3.41 22l5.29-5.29L12 20v-8H4l3.29 3.29L2 20.59 3.41 22z"/></symbol>
  <symbol viewBox="0 0 24 24" id="mdt-add_reaction"><path d="M19.41 9H18V7h-2V5.08A7.979 7.979 0 0 0 12 4c-4.42 0-8 3.58-8 8s3.58 8 8 8 8-3.58 8-8c0-1.06-.21-2.07-.59-3zM15.5 8c.83 0 1.5.67 1.5 1.5s-.67 1.5-1.5 1.5-1.5-.67-1.5-1.5.67-1.5 1.5-1.5zm-7 0c.83 0 1.5.67 1.5 1.5S9.33 11 8.5 11 7 10.33 7 9.5 7.67 8 8.5 8zm3.5 9.5c-2.33 0-4.31-1.46-5.11-3.5h10.22c-.8 2.04-2.78 3.5-5.11 3.5z" opacity=".3"/><path d="M7 9.5C7 8.67 7.67 8 8.5 8s1.5.67 1.5 1.5S9.33 11 8.5 11 7 10.33 7 9.5zm5 8c2.33 0 4.31-1.46 5.11-3.5H6.89c.8 2.04 2.78 3.5 5.11 3.5zm3.5-6.5c.83 0 1.5-.67 1.5-1.5S16.33 8 15.5 8 14 8.67 14 9.5s.67 1.5 1.5 1.5zM22 1h-2v2h-2v2h2v2h2V5h2V3h-2V1zm-2 11c0 4.42-3.58 8-8 8s-8-3.58-8-8 3.58-8 8-8c1.46 0 2.82.4 4 1.08V2.84A9.929 9.929 0 0 0 11.99 2C6.47 2 2 6.48 2 12s4.47 10 9.99 10C17.52 22 22 17.52 22 12c0-1.05-.17-2.05-.47-3H19.4c.38.93.6 1.94.6 3z"/></symbol>
  <symbol viewBox="0 0 24 24" id="mdt-open_in_full"><path d="M21 11V3h-8l3.29 3.29-10 10L3 13v8h8l-3.29-3.29 10-10z"/></symbol>
  <symbol viewBox="0 0 24 24" id="mdt-interests"><path d="M7.02 19c-1.1 0-2-.9-2-2s.9-2 2-2 2 .9 2 2-.9 2-2 2zM19 19h-4v-4h4v4zM7 6.12 8.6 9H5.4L7 6.12zm10 2.23c-1.45-1.22-3-2.4-3-3.1 0-.43.35-.75.75-.75.31 0 .52.17.73.37L17 6.3l1.52-1.43c.21-.2.42-.37.73-.37.4 0 .75.32.75.75 0 .7-1.55 1.88-3 3.1z" opacity=".3"/><path d="M7.02 13c-2.21 0-4 1.79-4 4s1.79 4 4 4 4-1.79 4-4-1.79-4-4-4zm0 6c-1.1 0-2-.9-2-2s.9-2 2-2 2 .9 2 2-.9 2-2 2zM13 13v8h8v-8h-8zm6 6h-4v-4h4v4zM7 2l-5 9h10L7 2zm0 4.12L8.6 9H5.4L7 6.12zM19.25 2.5c-1.06 0-1.81.56-2.25 1.17-.44-.61-1.19-1.17-2.25-1.17C13.19 2.5 12 3.78 12 5.25c0 2 2.42 3.42 5 5.75 2.58-2.33 5-3.75 5-5.75 0-1.47-1.19-2.75-2.75-2.75zM17 8.35c-1.45-1.22-3-2.4-3-3.1 0-.43.35-.75.75-.75.31 0 .52.17.73.37L17 6.3l1.52-1.43c.21-.2.42-.37.73-.37.4 0 .75.32.75.75 0 .7-1.55 1.88-3 3.1z"/></symbol>
  <symbol viewBox="0 0 24 24" id="mdt-file_download"><path d="M14.17 11H13V5h-2v6H9.83L12 13.17z" opacity=".3"/><path d="M5 18h14v2H5zm14-9h-4V3H9v6H5l7 7 7-7zm-8 2V5h2v6h1.17L12 13.17 9.83 11H11z"/></symbol>
  <symbol viewBox="0 0 24 24" id="mdt-more_horiz"><path d="M6 10c-1.1 0-2 .9-2 2s.9 2 2 2 2-.9 2-2-.9-2-2-2zm12 0c-1.1 0-2 .9-2 2s.9 2 2 2 2-.9 2-2-.9-2-2-2zm-6 0c-1.1 0-2 .9-2 2s.9 2 2 2 2-.9 2-2-.9-2-2-2z"/></symbol>
  <symbol viewBox="0 0 24 24" id="mdt-more_vert"><path d="M12 8c1.1 0 2-.9 2-2s-.9-2-2-2-2 .9-2 2 .9 2 2 2zm0 2c-1.1 0-2 .9-2 2s.9 2 2 2 2-.9 2-2-.9-2-2-2zm0 6c-1.1 0-2 .9-2 2s.9 2 2 2 2-.9 2-2-.9-2-2-2z"/></symbol>
  <symbol viewBox="0 0 24 24" id="mdt-mail"><path d="M20 6H4l8 4.99zM4 8v10h16V8l-8 5z" opacity=".3"/><path d="M20 4H4c-1.1 0-2 .9-2 2v12c0 1.1.9 2 2 2h16c1.1 0 2-.9 2-2V6c0-1.1-.9-2-2-2zm0 2-8 4.99L4 6h16zm0 12H4V8l8 5 8-5v10z"/></symbol>
  <symbol viewBox="0 0 24 24" id="mdt-error"><path d="M12 4c-4.42 0-8 3.58-8 8s3.58 8 8 8 8-3.58 8-8-3.58-8-8-8zm1 13h-2v-2h2v2zm0-4h-2V7h2v6z" opacity=".3"/><path d="M11.99 2C6.47 2 2 6.48 2 12s4.47 10 9.99 10C17.52 22 22 17.52 22 12S17.52 2 11.99 2zM12 20c-4.42 0-8-3.58-8-8s3.58-8 8-8 8 3.58 8 8-3.58 8-8 8zm-1-5h2v2h-2zm0-8h2v6h-2z"/></symbol>
  <symbol viewBox="0 0 24 24" id="mdt-warning"><path d="M4.47 19h15.06L12 5.99 4.47 19zM13 18h-2v-2h2v2zm0-4h-2v-4h2v4z" opacity=".3"/><path d="M1 21h22L12 2 1 21zm3.47-2L12 5.99 19.53 19H4.47zM11 16h2v2h-2zm0-6h2v4h-2z"/></symbol>
  <symbol viewBox="0 0 24 24" id="mdt-launch"><path d="M19 19H5V5h7V3H5a2 2 0 0 0-2 2v14a2 2 0 0 0 2 2h14c1.1 0 2-.9 2-2v-7h-2v7zM14 3v2h3.59l-9.83 9.83 1.41 1.41L19 6.41V10h2V3h-7z"/></symbol>
  <symbol viewBox="0 0 24 24" id="mdt-android"><path d="m17.6 9.48 1.84-3.18c.16-.31.04-.69-.26-.85a.637.637 0 0 0-.83.22l-1.88 3.24a11.463 11.463 0 0 0-8.94 0L5.65 5.67a.643.643 0 0 0-.87-.2c-.28.18-.37.54-.22.83L6.4 9.48A10.78 10.78 0 0 0 1 18h22a10.78 10.78 0 0 0-5.4-8.52zM7 15.25a1.25 1.25 0 1 1 0-2.5 1.25 1.25 0 0 1 0 2.5zm10 0a1.25 1.25 0 1 1 0-2.5 1.25 1.25 0 0 1 0 2.5z"/></symbol>
  <symbol viewBox="0 0 24 24" id="mdt-insert_invitation"><path d="M19 5H5v2h14z" opacity=".3"/><path d="M5 21h14c1.1 0 2-.9 2-2V5c0-1.1-.9-2-2-2h-1V1h-2v2H8V1H6v2H5c-1.11 0-1.99.9-1.99 2L3 19a2 2 0 0 0 2 2zM5 7V5h14v2H5zm0 2h14v10H5V9zm7 3h5v5h-5z"/></symbol>
  <symbol viewBox="0 0 24 24" id="mdt-assessment"><path d="M5 5v14h14V5H5zm4 12H7v-7h2v7zm4 0h-2V7h2v10zm4 0h-2v-4h2v4z" opacity=".3"/><path d="M19 3H5c-1.1 0-2 .9-2 2v14c0 1.1.9 2 2 2h14c1.1 0 2-.9 2-2V5c0-1.1-.9-2-2-2zm0 16H5V5h14v14zM7 10h2v7H7zm4-3h2v10h-2zm4 6h2v4h-2z"/></symbol>
  <symbol viewBox="0 0 24 24" id="mdt-circle"><circle cx="12" cy="12" r="8" opacity=".3"/><path d="M12 2C6.47 2 2 6.47 2 12s4.47 10 10 10 10-4.47 10-10S17.53 2 12 2zm0 18c-4.42 0-8-3.58-8-8s3.58-8 8-8 8 3.58 8 8-3.58 8-8 8z"/></symbol>
  <symbol viewBox="0 0 24 24" id="mdt-content_paste"><path d="M17 7H7V4H5v16h14V4h-2z" opacity=".3"/><path d="M19 2h-4.18C14.4.84 13.3 0 12 0S9.6.84 9.18 2H5c-1.1 0-2 .9-2 2v16c0 1.1.9 2 2 2h14c1.1 0 2-.9 2-2V4c0-1.1-.9-2-2-2zm-7 0c.55 0 1 .45 1 1s-.45 1-1 1-1-.45-1-1 .45-1 1-1zm7 18H5V4h2v3h10V4h2v16z"/></symbol>
  <symbol viewBox="0 0 24 24" id="mdt-schedule"><path d="M12 4c-4.42 0-8 3.58-8 8s3.58 8 8 8 8-3.58 8-8-3.58-8-8-8zm4.25 12.15L11 13V7h1.5v5.25l4.5 2.67-.75 1.23z" opacity=".3"/><path d="M11.99 2C6.47 2 2 6.48 2 12s4.47 10 9.99 10C17.52 22 22 17.52 22 12S17.52 2 11.99 2zM12 20c-4.42 0-8-3.58-8-8s3.58-8 8-8 8 3.58 8 8-3.58 8-8 8zm.5-13H11v6l5.25 3.15.75-1.23-4.5-2.67z"/></symbol>
  <symbol viewBox="0 0 24 24" id="mdt-copyright"><path d="M12 4c-4.41 0-8 3.59-8 8s3.59 8 8 8 8-3.59 8-8-3.59-8-8-8zm-1.92 9.14c.05.33.16.63.3.88s.34.46.59.62c.23.15.53.22.89.23.21-.01.41-.03.6-.1.2-.07.37-.17.52-.3.15-.13.27-.28.36-.46.09-.18.14-.37.15-.58h1.79c-.01.41-.12.79-.3 1.15-.18.36-.43.67-.74.94-.31.27-.67.48-1.08.63-.41.15-.85.23-1.32.23-.65 0-1.22-.12-1.7-.34-.48-.22-.88-.53-1.2-.91s-.56-.83-.71-1.35c-.15-.52-.23-1.06-.23-1.64v-.27c0-.58.09-1.12.24-1.64.15-.52.39-.97.71-1.36s.72-.69 1.2-.92c.48-.23 1.05-.34 1.7-.34.51 0 .97.07 1.39.23.42.16.78.38 1.08.66.3.28.53.62.7 1.01.17.39.26.82.28 1.29h-1.79c-.01-.22-.05-.44-.14-.64-.09-.2-.2-.38-.34-.53-.14-.15-.32-.27-.52-.36-.19-.08-.4-.12-.63-.13-.37.01-.67.08-.91.23-.25.16-.45.37-.59.62s-.25.54-.3.87c-.05.33-.08.66-.08 1.01v.27c0 .33.03.67.08 1z" opacity=".3"/><path d="M10.08 10.86c.05-.33.16-.62.3-.87s.34-.46.59-.62c.24-.15.54-.22.91-.23.23.01.44.05.63.13.2.09.38.21.52.36s.25.33.34.53c.09.2.13.42.14.64h1.79c-.02-.47-.11-.9-.28-1.29-.17-.39-.4-.73-.7-1.01-.3-.28-.66-.5-1.08-.66-.42-.16-.88-.23-1.39-.23-.65 0-1.22.11-1.7.34-.48.23-.88.53-1.2.92s-.56.84-.71 1.36c-.15.52-.24 1.06-.24 1.64v.27c0 .58.08 1.12.23 1.64.15.52.39.97.71 1.35s.72.69 1.2.91c.48.22 1.05.34 1.7.34.47 0 .91-.08 1.32-.23.41-.15.77-.36 1.08-.63.31-.27.56-.58.74-.94.18-.36.29-.74.3-1.15h-1.79c-.01.21-.06.4-.15.58-.09.18-.21.33-.36.46s-.32.23-.52.3c-.19.07-.39.09-.6.1-.36-.01-.66-.08-.89-.23-.25-.16-.45-.37-.59-.62s-.25-.55-.3-.88a6.74 6.74 0 0 1-.08-1v-.27c0-.35.03-.68.08-1.01zM12 2C6.48 2 2 6.48 2 12s4.48 10 10 10 10-4.48 10-10S17.52 2 12 2zm0 18c-4.41 0-8-3.59-8-8s3.59-8 8-8 8 3.59 8 8-3.59 8-8 8z"/></symbol>
  <symbol viewBox="0 0 24 24" id="mdt-radio_button_checked"><path d="M12 2C6.48 2 2 6.48 2 12s4.48 10 10 10 10-4.48 10-10S17.52 2 12 2zm0 18c-4.42 0-8-3.58-8-8s3.58-8 8-8 8 3.58 8 8-3.58 8-8 8z"/><circle cx="12" cy="12" r="5"/></symbol>
  <symbol viewBox="0 0 24 24" id="mdt-edit"><path d="M5 18.08V19h.92l9.06-9.06-.92-.92z" opacity=".3"/><path d="M20.71 7.04a.996.996 0 0 0 0-1.41l-2.34-2.34c-.2-.2-.45-.29-.71-.29s-.51.1-.7.29l-1.83 1.83 3.75 3.75 1.83-1.83zM3 17.25V21h3.75L17.81 9.94l-3.75-3.75L3 17.25zM5.92 19H5v-.92l9.06-9.06.92.92L5.92 19z"/></symbol>
  <symbol viewBox="0 0 24 24" id="mdt-visibility_off"><path d="M12 14c.04 0 .08-.01.12-.01l-2.61-2.61c0 .04-.01.08-.01.12A2.5 2.5 0 0 0 12 14zm1.01-4.79 1.28 1.28c-.26-.57-.71-1.03-1.28-1.28zm7.81 2.29A9.77 9.77 0 0 0 12 6c-.68 0-1.34.09-1.99.22l.92.92c.35-.09.7-.14 1.07-.14 2.48 0 4.5 2.02 4.5 4.5 0 .37-.06.72-.14 1.07l2.05 2.05c.98-.86 1.81-1.91 2.41-3.12zM12 17c.95 0 1.87-.13 2.75-.39l-.98-.98c-.54.24-1.14.37-1.77.37a4.507 4.507 0 0 1-4.14-6.27L6.11 7.97c-1.22.91-2.23 2.1-2.93 3.52A9.78 9.78 0 0 0 12 17z" opacity=".3"/><path d="M12 6a9.77 9.77 0 0 1 8.82 5.5 9.647 9.647 0 0 1-2.41 3.12l1.41 1.41c1.39-1.23 2.49-2.77 3.18-4.53C21.27 7.11 17 4 12 4c-1.27 0-2.49.2-3.64.57l1.65 1.65C10.66 6.09 11.32 6 12 6zm2.28 4.49 2.07 2.07c.08-.34.14-.7.14-1.07C16.5 9.01 14.48 7 12 7c-.37 0-.72.06-1.07.14L13 9.21c.58.25 1.03.71 1.28 1.28zM2.01 3.87l2.68 2.68A11.738 11.738 0 0 0 1 11.5C2.73 15.89 7 19 12 19c1.52 0 2.98-.29 4.32-.82l3.42 3.42 1.41-1.41L3.42 2.45 2.01 3.87zm7.5 7.5 2.61 2.61c-.04.01-.08.02-.12.02a2.5 2.5 0 0 1-2.5-2.5c0-.05.01-.08.01-.13zm-3.4-3.4 1.75 1.75a4.6 4.6 0 0 0-.36 1.78 4.507 4.507 0 0 0 6.27 4.14l.98.98c-.88.24-1.8.38-2.75.38a9.77 9.77 0 0 1-8.82-5.5c.7-1.43 1.72-2.61 2.93-3.53z"/></symbol>
  <symbol viewBox="0 0 24 24" id="mdt-visibility"><path d="M12 6a9.77 9.77 0 0 0-8.82 5.5C4.83 14.87 8.21 17 12 17s7.17-2.13 8.82-5.5A9.77 9.77 0 0 0 12 6zm0 10c-2.48 0-4.5-2.02-4.5-4.5S9.52 7 12 7s4.5 2.02 4.5 4.5S14.48 16 12 16z" opacity=".3"/><path d="M12 4C7 4 2.73 7.11 1 11.5 2.73 15.89 7 19 12 19s9.27-3.11 11-7.5C21.27 7.11 17 4 12 4zm0 13a9.77 9.77 0 0 1-8.82-5.5C4.83 8.13 8.21 6 12 6s7.17 2.13 8.82 5.5A9.77 9.77 0 0 1 12 17zm0-10c-2.48 0-4.5 2.02-4.5 4.5S9.52 16 12 16s4.5-2.02 4.5-4.5S14.48 7 12 7zm0 7a2.5 2.5 0 0 1 0-5 2.5 2.5 0 0 1 0 5z"/></symbol>
  <symbol viewBox="0 0 24 24" id="mdt-description"><path d="M13 4H6v16h12V9h-5V4zm3 14H8v-2h8v2zm0-6v2H8v-2h8z" opacity=".3"/><path d="M8 16h8v2H8zm0-4h8v2H8zm6-10H6c-1.1 0-2 .9-2 2v16c0 1.1.89 2 1.99 2H18c1.1 0 2-.9 2-2V8l-6-6zm4 18H6V4h7v5h5v11z"/></symbol>
  <symbol viewBox="0 0 24 24" id="mdt-sentiment_dissatisfied"><path d="M12 4c-4.42 0-8 3.58-8 8s3.58 8 8 8 8-3.58 8-8-3.58-8-8-8zm3.5 4c.83 0 1.5.67 1.5 1.5s-.67 1.5-1.5 1.5-1.5-.67-1.5-1.5.67-1.5 1.5-1.5zm-7 0c.83 0 1.5.67 1.5 1.5S9.33 11 8.5 11 7 10.33 7 9.5 7.67 8 8.5 8zm6.95 9.5c-.7-1.19-1.97-2-3.45-2s-2.76.81-3.45 2H6.88a5.495 5.495 0 0 1 10.24 0h-1.67z" opacity=".3"/><circle cx="15.5" cy="9.5" r="1.5"/><circle cx="8.5" cy="9.5" r="1.5"/><path d="M11.99 2C6.47 2 2 6.48 2 12s4.47 10 9.99 10C17.52 22 22 17.52 22 12S17.52 2 11.99 2zM12 20c-4.42 0-8-3.58-8-8s3.58-8 8-8 8 3.58 8 8-3.58 8-8 8zm0-6c-2.33 0-4.32 1.45-5.12 3.5h1.67c.69-1.19 1.97-2 3.45-2s2.75.81 3.45 2h1.67c-.8-2.05-2.79-3.5-5.12-3.5z"/></symbol>
  <symbol viewBox="0 0 24 24" id="mdt-image"><path d="M5 19h14V5H5v14zm4-5.86 2.14 2.58 3-3.87L18 17H6l3-3.86z" opacity=".3"/><path d="M19 3H5c-1.1 0-2 .9-2 2v14c0 1.1.9 2 2 2h14c1.1 0 2-.9 2-2V5c0-1.1-.9-2-2-2zm0 16H5V5h14v14zm-4.86-7.14-3 3.86L9 13.14 6 17h12z"/></symbol>
  <symbol viewBox="0 0 24 24" id="mdt-list_alt"><path d="M5 19h14V5H5v14zm6-12h6v2h-6V7zm0 4h6v2h-6v-2zm0 4h6v2h-6v-2zM7 7h2v2H7V7zm0 4h2v2H7v-2zm0 4h2v2H7v-2z" opacity=".3"/><path d="M11 7h6v2h-6zm0 4h6v2h-6zm0 4h6v2h-6zM7 7h2v2H7zm0 4h2v2H7zm0 4h2v2H7zM20.1 3H3.9c-.5 0-.9.4-.9.9v16.2c0 .4.4.9.9.9h16.2c.4 0 .9-.5.9-.9V3.9c0-.5-.5-.9-.9-.9zM19 19H5V5h14v14z"/></symbol>
  <symbol viewBox="0 0 24 24" id="mdt-sentiment_neutral"><path d="M12 4c-4.42 0-8 3.58-8 8s3.58 8 8 8 8-3.58 8-8-3.58-8-8-8zM7 9.5C7 8.67 7.67 8 8.5 8s1.5.67 1.5 1.5S9.33 11 8.5 11 7 10.33 7 9.5zm8 6H9V14h6v1.5zm.5-4.5c-.83 0-1.5-.67-1.5-1.5S14.67 8 15.5 8s1.5.67 1.5 1.5-.67 1.5-1.5 1.5z" opacity=".3"/><path d="M9 14h6v1.5H9z"/><circle cx="15.5" cy="9.5" r="1.5"/><circle cx="8.5" cy="9.5" r="1.5"/><path d="M11.99 2C6.47 2 2 6.48 2 12s4.47 10 9.99 10C17.52 22 22 17.52 22 12S17.52 2 11.99 2zM12 20c-4.42 0-8-3.58-8-8s3.58-8 8-8 8 3.58 8 8-3.58 8-8 8z"/></symbol>
  <symbol viewBox="0 0 24 24" id="mdt-dark_mode"><path d="M9.37 5.51A7.35 7.35 0 0 0 9.1 7.5c0 4.08 3.32 7.4 7.4 7.4.68 0 1.35-.09 1.99-.27A7.014 7.014 0 0 1 12 19c-3.86 0-7-3.14-7-7 0-2.93 1.81-5.45 4.37-6.49z" opacity=".3"/><path d="M9.37 5.51A7.35 7.35 0 0 0 9.1 7.5c0 4.08 3.32 7.4 7.4 7.4.68 0 1.35-.09 1.99-.27A7.014 7.014 0 0 1 12 19c-3.86 0-7-3.14-7-7 0-2.93 1.81-5.45 4.37-6.49zM12 3a9 9 0 1 0 9 9c0-.46-.04-.92-.1-1.36a5.389 5.389 0 0 1-4.4 2.26 5.403 5.403 0 0 1-3.14-9.8c-.44-.06-.9-.1-1.36-.1z"/></symbol>
  <symbol viewBox="0 0 24 24" id="mdt-sentiment_satisfied"><path d="M12 4c-4.42 0-8 3.58-8 8s3.58 8 8 8 8-3.58 8-8-3.58-8-8-8zm3.5 4c.83 0 1.5.67 1.5 1.5s-.67 1.5-1.5 1.5-1.5-.67-1.5-1.5.67-1.5 1.5-1.5zm-7 0c.83 0 1.5.67 1.5 1.5S9.33 11 8.5 11 7 10.33 7 9.5 7.67 8 8.5 8zm3.5 9.5c-2.33 0-4.32-1.45-5.12-3.5h1.67c.7 1.19 1.97 2 3.45 2s2.75-.81 3.45-2h1.67c-.8 2.05-2.79 3.5-5.12 3.5z" opacity=".3"/><circle cx="15.5" cy="9.5" r="1.5"/><circle cx="8.5" cy="9.5" r="1.5"/><path d="M12 16c-1.48 0-2.75-.81-3.45-2H6.88a5.495 5.495 0 0 0 10.24 0h-1.67c-.7 1.19-1.97 2-3.45 2zm-.01-14C6.47 2 2 6.48 2 12s4.47 10 9.99 10C17.52 22 22 17.52 22 12S17.52 2 11.99 2zM12 20c-4.42 0-8-3.58-8-8s3.58-8 8-8 8 3.58 8 8-3.58 8-8 8z"/></symbol>
  <symbol viewBox="0 0 24 24" id="mdt-square"><path d="M5 5h14v14H5z" opacity=".3"/><path d="M3 3v18h18V3H3zm16 16H5V5h14v14z"/></symbol>
  <symbol viewBox="0 0 24 24" id="mdt-star_outline"><path d="m22 9.24-7.19-.62L12 2 9.19 8.63 2 9.24l5.46 4.73L5.82 21 12 17.27 18.18 21l-1.63-7.03L22 9.24zM12 15.4l-3.76 2.27 1-4.28-3.32-2.88 4.38-.38L12 6.1l1.71 4.04 4.38.38-3.32 2.88 1 4.28L12 15.4z"/></symbol>
  <symbol viewBox="0 0 24 24" id="mdt-light_mode"><circle cx="12" cy="12" r="3" opacity=".3"/><path d="M12 9c1.65 0 3 1.35 3 3s-1.35 3-3 3-3-1.35-3-3 1.35-3 3-3m0-2c-2.76 0-5 2.24-5 5s2.24 5 5 5 5-2.24 5-5-2.24-5-5-5zM2 13h2c.55 0 1-.45 1-1s-.45-1-1-1H2c-.55 0-1 .45-1 1s.45 1 1 1zm18 0h2c.55 0 1-.45 1-1s-.45-1-1-1h-2c-.55 0-1 .45-1 1s.45 1 1 1zM11 2v2c0 .55.45 1 1 1s1-.45 1-1V2c0-.55-.45-1-1-1s-1 .45-1 1zm0 18v2c0 .55.45 1 1 1s1-.45 1-1v-2c0-.55-.45-1-1-1s-1 .45-1 1zM5.99 4.58a.996.996 0 0 0-1.41 0 .996.996 0 0 0 0 1.41l1.06 1.06c.39.39 1.03.39 1.41 0s.39-1.03 0-1.41L5.99 4.58zm12.37 12.37a.996.996 0 0 0-1.41 0 .996.996 0 0 0 0 1.41l1.06 1.06c.39.39 1.03.39 1.41 0a.996.996 0 0 0 0-1.41l-1.06-1.06zm1.06-10.96a.996.996 0 0 0 0-1.41.996.996 0 0 0-1.41 0l-1.06 1.06c-.39.39-.39 1.03 0 1.41s1.03.39 1.41 0l1.06-1.06zM7.05 18.36a.996.996 0 0 0 0-1.41.996.996 0 0 0-1.41 0l-1.06 1.06c-.39.39-.39 1.03 0 1.41s1.03.39 1.41 0l1.06-1.06z"/></symbol>
  <symbol viewBox="0 0 24 24" id="mdt-thumb_down"><path d="M3 12v2h9l-1.34 5.34L15 15V5H6z" opacity=".3"/><path d="M15 3H6c-.83 0-1.54.5-1.84 1.22l-3.02 7.05c-.09.23-.14.47-.14.73v2c0 1.1.9 2 2 2h6.31l-.95 4.57-.03.32c0 .41.17.79.44 1.06L9.83 23l6.59-6.59c.36-.36.58-.86.58-1.41V5c0-1.1-.9-2-2-2zm0 12-4.34 4.34L12 14H3v-2l3-7h9v10zm4-12h4v12h-4z"/></symbol>
  <symbol viewBox="0 0 24 24" id="mdt-thumb_up"><path d="M21 12v-2h-9l1.34-5.34L9 9v10h9z" opacity=".3"/><path d="M9 21h9c.83 0 1.54-.5 1.84-1.22l3.02-7.05c.09-.23.14-.47.14-.73v-2c0-1.1-.9-2-2-2h-6.31l.95-4.57.03-.32c0-.41-.17-.79-.44-1.06L14.17 1 7.58 7.59C7.22 7.95 7 8.45 7 9v10c0 1.1.9 2 2 2zM9 9l4.34-4.34L12 10h9v2l-3 7H9V9zM1 9h4v12H1z"/></symbol>
  <symbol viewBox="0 0 24 24" id="mdt-delete"><path d="M8 9h8v10H8z" opacity=".3"/><path d="m15.5 4-1-1h-5l-1 1H5v2h14V4zM6 19c0 1.1.9 2 2 2h8c1.1 0 2-.9 2-2V7H6v12zM8 9h8v10H8V9z"/></symbol>
  <symbol viewBox="0 0 24 24" id="mdt-fast_forward"><path d="M15 9.86v4.28L18.03 12zm-9 0v4.28L9.03 12z" opacity=".3"/><path d="m4 18 8.5-6L4 6v12zm2-8.14L9.03 12 6 14.14V9.86zM21.5 12 13 6v12l8.5-6zM15 9.86 18.03 12 15 14.14V9.86z"/></symbol>
  <symbol viewBox="0 0 24 24" id="mdt-audio_file"><path d="M13 4H6v16h12V9h-5V4zm3 7v2h-3v3.75c0 1.24-1.01 2.25-2.25 2.25S8.5 17.99 8.5 16.75s1.01-2.25 2.25-2.25c.46 0 .89.14 1.25.38V11h4z" opacity=".3"/><path d="M14 2H6c-1.1 0-2 .9-2 2v16c0 1.1.9 2 2 2h12c1.1 0 2-.9 2-2V8l-6-6zm4 18H6V4h7v5h5v11z"/><path d="M12 14.88a2.247 2.247 0 0 0-3.5 1.87c0 1.24 1.01 2.25 2.25 2.25S13 17.99 13 16.75V13h3v-2h-4v3.88z"/></symbol>
  <symbol viewBox="0 0 24 24" id="mdt-insert_photo"><path d="M5 19h14V5H5v14zm4-5.86 2.14 2.58 3-3.87L18 17H6l3-3.86z" opacity=".3"/><path d="M3 5v14c0 1.1.9 2 2 2h14c1.1 0 2-.9 2-2V5c0-1.1-.9-2-2-2H5c-1.1 0-2 .9-2 2zm16 14H5V5h14v14zm-4.86-7.14-3 3.86L9 13.14 6 17h12z"/></symbol>
  <symbol viewBox="0 0 24 24" id="mdt-receipt_long"><path d="M19 19c0 .55-.45 1-1 1s-1-.45-1-1v-3H8V5h11v14z" opacity=".3"/><path d="M19.5 3.5 18 2l-1.5 1.5L15 2l-1.5 1.5L12 2l-1.5 1.5L9 2 7.5 3.5 6 2v14H3v3c0 1.66 1.34 3 3 3h12c1.66 0 3-1.34 3-3V2l-1.5 1.5zM19 19c0 .55-.45 1-1 1s-1-.45-1-1v-3H8V5h11v14z"/><path d="M9 7h6v2H9zm7 0h2v2h-2zm-7 3h6v2H9zm7 0h2v2h-2z"/></symbol>
  <symbol viewBox="0 0 24 24" id="mdt-video_file"><path d="M13 9V4H6v16h12V9h-5zm3 8.06L14 16v1c0 .55-.45 1-1 1H9c-.55 0-1-.45-1-1v-4c0-.55.45-1 1-1h4c.55 0 1 .45 1 1v1l2-1.06v4.12z" opacity=".3"/><path d="M14 2H6c-1.1 0-2 .9-2 2v16c0 1.1.9 2 2 2h12c1.1 0 2-.9 2-2V8l-6-6zM6 20V4h7v5h5v11H6zm8-6 2-1.06v4.12L14 16v1c0 .55-.45 1-1 1H9c-.55 0-1-.45-1-1v-4c0-.55.45-1 1-1h4c.55 0 1 .45 1 1v1z"/></symbol>
  <symbol viewBox="0 0 24 24" id="mdt-insert_drive_file"><path d="M13 4H6v16h12V9h-5z" opacity=".3"/><path d="m20 8-6-6H6c-1.1 0-1.99.9-1.99 2L4 20c0 1.1.89 2 1.99 2H18c1.1 0 2-.9 2-2V8zm-2 12H6V4h7v5h5v11z"/></symbol>
  <symbol viewBox="0 0 24 24" id="mdt-filter_alt"><path d="M7 6h10l-5.01 6.3L7 6zm-2.75-.39C6.27 8.2 10 13 10 13v6c0 .55.45 1 1 1h2c.55 0 1-.45 1-1v-6s3.72-4.8 5.74-7.39A.998.998 0 0 0 18.95 4H5.04c-.83 0-1.3.95-.79 1.61z"/><path d="M7 6h10l-5.01 6.3z" opacity=".3"/></symbol>
  <symbol viewBox="0 0 24 24" id="mdt-flag"><path d="M12.36 6H7v6h7.24l.4 2H18V8h-5.24z" opacity=".3"/><path d="M14.4 6 14 4H5v17h2v-7h5.6l.4 2h7V6h-5.6zm3.6 8h-3.36l-.4-2H7V6h5.36l.4 2H18v6z"/></symbol>
  <symbol viewBox="0 0 24 24" id="mdt-folder_open"><path d="M4 8h16v10H4z" opacity=".3"/><path d="M20 6h-8l-2-2H4c-1.1 0-1.99.9-1.99 2L2 18c0 1.1.9 2 2 2h16c1.1 0 2-.9 2-2V8c0-1.1-.9-2-2-2zm0 12H4V8h16v10z"/></symbol>
  <symbol viewBox="0 0 24 24" id="mdt-folder"><path d="m11.17 8-.58-.59L9.17 6H4v12h16V8h-8z" opacity=".3"/><path d="M20 6h-8l-2-2H4c-1.1 0-1.99.9-1.99 2L2 18c0 1.1.9 2 2 2h16c1.1 0 2-.9 2-2V8c0-1.1-.9-2-2-2zm0 12H4V6h5.17l1.41 1.41.59.59H20v10z"/></symbol>
  <symbol viewBox="0 0 24 24" id="mdt-gavel"><path d="M1 21h12v2H1v-2zM5.24 8.07l2.83-2.83 14.14 14.14-2.83 2.83L5.24 8.07zM12.32 1l5.66 5.66-2.83 2.83-5.66-5.66L12.32 1zM3.83 9.48l5.66 5.66-2.83 2.83L1 12.31l2.83-2.83z"/></symbol>
  <symbol viewBox="0 0 24 24" id="mdt-public"><path d="M14.99 4.59V5c0 1.1-.9 2-2 2h-2v2c0 .55-.45 1-1 1h-2v2h6c.55 0 1 .45 1 1v3h1c.89 0 1.64.59 1.9 1.4A7.991 7.991 0 0 0 20 12c0-3.35-2.08-6.23-5.01-7.41zM8.99 16v-1l-4.78-4.78C4.08 10.79 4 11.39 4 12c0 4.07 3.06 7.43 6.99 7.93V18c-1.1 0-2-.9-2-2z" opacity=".3"/><path d="M12 2C6.48 2 2 6.48 2 12s4.48 10 10 10 10-4.48 10-10S17.52 2 12 2zm-1.01 17.93C7.06 19.43 4 16.07 4 12c0-.61.08-1.21.21-1.78L8.99 15v1c0 1.1.9 2 2 2v1.93zm6.9-2.53c-.26-.81-1-1.4-1.9-1.4h-1v-3c0-.55-.45-1-1-1h-6v-2h2c.55 0 1-.45 1-1V7h2c1.1 0 2-.9 2-2v-.41C17.92 5.77 20 8.65 20 12c0 2.08-.81 3.98-2.11 5.4z"/></symbol>
  <symbol viewBox="0 0 24 24" id="mdt-language"><path d="M5.08 8h2.95c.32-1.25.78-2.45 1.38-3.56-1.84.63-3.37 1.9-4.33 3.56zm2.42 4c0-.68.06-1.34.14-2H4.26c-.16.64-.26 1.31-.26 2s.1 1.36.26 2h3.38c-.08-.66-.14-1.32-.14-2zm-2.42 4a7.987 7.987 0 0 0 4.33 3.56A15.65 15.65 0 0 1 8.03 16H5.08zM12 4.04c-.83 1.2-1.48 2.53-1.91 3.96h3.82c-.43-1.43-1.08-2.76-1.91-3.96zM18.92 8a8.03 8.03 0 0 0-4.33-3.56c.6 1.11 1.06 2.31 1.38 3.56h2.95zM12 19.96c.83-1.2 1.48-2.53 1.91-3.96h-3.82c.43 1.43 1.08 2.76 1.91 3.96zm2.59-.4A8.03 8.03 0 0 0 18.92 16h-2.95a15.65 15.65 0 0 1-1.38 3.56zM19.74 10h-3.38c.08.66.14 1.32.14 2s-.06 1.34-.14 2h3.38c.16-.64.26-1.31.26-2s-.1-1.36-.26-2zM9.66 10c-.09.65-.16 1.32-.16 2s.07 1.34.16 2h4.68c.09-.66.16-1.32.16-2s-.07-1.35-.16-2H9.66z" opacity=".3"/><path d="M11.99 2C6.47 2 2 6.48 2 12s4.47 10 9.99 10C17.52 22 22 17.52 22 12S17.52 2 11.99 2zm6.93 6h-2.95a15.65 15.65 0 0 0-1.38-3.56A8.03 8.03 0 0 1 18.92 8zM12 4.04c.83 1.2 1.48 2.53 1.91 3.96h-3.82c.43-1.43 1.08-2.76 1.91-3.96zM4.26 14C4.1 13.36 4 12.69 4 12s.1-1.36.26-2h3.38c-.08.66-.14 1.32-.14 2s.06 1.34.14 2H4.26zm.82 2h2.95c.32 1.25.78 2.45 1.38 3.56A7.987 7.987 0 0 1 5.08 16zm2.95-8H5.08a7.987 7.987 0 0 1 4.33-3.56A15.65 15.65 0 0 0 8.03 8zM12 19.96c-.83-1.2-1.48-2.53-1.91-3.96h3.82c-.43 1.43-1.08 2.76-1.91 3.96zM14.34 14H9.66c-.09-.66-.16-1.32-.16-2s.07-1.35.16-2h4.68c.09.65.16 1.32.16 2s-.07 1.34-.16 2zm.25 5.56c.6-1.11 1.06-2.31 1.38-3.56h2.95a8.03 8.03 0 0 1-4.33 3.56zM16.36 14c.08-.66.14-1.32.14-2s-.06-1.34-.14-2h3.38c.16.64.26 1.31.26 2s-.1 1.36-.26 2h-3.38z"/></symbol>
  <symbol viewBox="0 0 24 24" id="mdt-arrow_right_alt"><path d="M16.01 11H4v2h12.01v3L20 12l-3.99-4v3z"/></symbol>
  <symbol viewBox="0 0 24 24" id="mdt-handshake"><path d="M12.22 19.85c-.18.18-.5.21-.71 0a.504.504 0 0 1 0-.71l3.39-3.39-1.41-1.41-3.39 3.39c-.19.2-.51.19-.71 0a.504.504 0 0 1 0-.71l3.39-3.39-1.41-1.41-3.39 3.39c-.18.18-.5.21-.71 0a.513.513 0 0 1 0-.71l3.39-3.39-1.42-1.41-3.39 3.39c-.18.18-.5.21-.71 0a.513.513 0 0 1 0-.71L9.52 8.4l1.87 1.86c.95.95 2.59.94 3.54 0 .98-.98.98-2.56 0-3.54l-1.86-1.86.28-.28c.78-.78 2.05-.78 2.83 0l4.24 4.24c.78.78.78 2.05 0 2.83l-8.2 8.2z" opacity=".3"/><path d="M12.22 19.85c-.18.18-.5.21-.71 0a.504.504 0 0 1 0-.71l3.39-3.39-1.41-1.41-3.39 3.39c-.19.2-.51.19-.71 0a.504.504 0 0 1 0-.71l3.39-3.39-1.41-1.41-3.39 3.39c-.18.18-.5.21-.71 0a.513.513 0 0 1 0-.71l3.39-3.39-1.42-1.41-3.39 3.39c-.18.18-.5.21-.71 0a.513.513 0 0 1 0-.71L9.52 8.4l1.87 1.86c.95.95 2.59.94 3.54 0 .98-.98.98-2.56 0-3.54l-1.86-1.86.28-.28c.78-.78 2.05-.78 2.83 0l4.24 4.24c.78.78.78 2.05 0 2.83l-8.2 8.2zm9.61-6.78a4.008 4.008 0 0 0 0-5.66l-4.24-4.24a4.008 4.008 0 0 0-5.66 0l-.28.28-.28-.28a4.008 4.008 0 0 0-5.66 0L2.17 6.71a3.992 3.992 0 0 0-.4 5.19l1.45-1.45a2 2 0 0 1 .37-2.33l3.54-3.54c.78-.78 2.05-.78 2.83 0l3.56 3.56c.18.18.21.5 0 .71-.21.21-.53.18-.71 0L9.52 5.57l-5.8 5.79c-.98.97-.98 2.56 0 3.54.39.39.89.63 1.42.7a2.458 2.458 0 0 0 2.12 2.12 2.458 2.458 0 0 0 2.12 2.12c.07.54.31 1.03.7 1.42.47.47 1.1.73 1.77.73.67 0 1.3-.26 1.77-.73l8.21-8.19z"/></symbol>
  <symbol viewBox="0 0 24 24" id="mdt-tag"><path d="M20 10V8h-4V4h-2v4h-4V4H8v4H4v2h4v4H4v2h4v4h2v-4h4v4h2v-4h4v-2h-4v-4h4zm-6 4h-4v-4h4v4z"/></symbol>
  <symbol viewBox="0 0 24 24" id="mdt-history"><path d="M13 3a9 9 0 0 0-9 9H1l3.89 3.89.07.14L9 12H6c0-3.87 3.13-7 7-7s7 3.13 7 7-3.13 7-7 7c-1.93 0-3.68-.79-4.94-2.06l-1.42 1.42A8.954 8.954 0 0 0 13 21a9 9 0 0 0 0-18zm-1 5v5l4.25 2.52.77-1.28-3.52-2.09V8z"/></symbol>
  <symbol viewBox="0 0 24 24" id="mdt-home"><path d="M12 3 2 12h3v8h6v-6h2v6h6v-8h3L12 3zm5 15h-2v-6H9v6H7v-7.81l5-4.5 5 4.5V18z"/><path d="M7 10.19V18h2v-6h6v6h2v-7.81l-5-4.5z" opacity=".3"/></symbol>
  <symbol viewBox="0 0 24 24" id="mdt-hourglass_top"><path d="m8 7.5 4 4 4-4V4H8z" opacity=".3"/><path d="m8 7.5 4 4 4-4V4H8z" opacity=".3"/><path d="M18 2H6v6l4 4-3.99 4.01L6 22h12l-.01-5.99L14 12l4-3.99V2zm-2 14.5V20H8v-3.5l4-4 4 4zm0-9-4 4-4-4V4h8v3.5z"/></symbol>
  <symbol viewBox="0 0 24 24" id="mdt-panorama"><path d="M3 18h18V6H3v12zm5.5-5.5 2.5 3.01L14.5 11l4.5 6H5l3.5-4.5z" opacity=".3"/><path d="M21 4H3c-1.1 0-2 .9-2 2v12c0 1.1.9 2 2 2h18c1.1 0 2-.9 2-2V6c0-1.1-.9-2-2-2zm0 14H3V6h18v12zm-6.5-7L11 15.51 8.5 12.5 5 17h14z"/></symbol>
  <symbol viewBox="0 0 24 24" id="mdt-inbox"><path d="M12.01 18c-1.48 0-2.75-.81-3.45-2H5v3h14v-3h-3.55a3.98 3.98 0 0 1-3.44 2z" opacity=".3"/><path d="M19 3H5c-1.1 0-2 .9-2 2v14a2 2 0 0 0 2 2h14c1.1 0 2-.9 2-2V5c0-1.1-.9-2-2-2zm0 16H5v-3h3.56c.69 1.19 1.97 2 3.45 2s2.75-.81 3.45-2H19v3zm0-5h-5c0 1.1-.9 2-2 2s-2-.9-2-2H5V5h14v9z"/></symbol>
  <symbol viewBox="0 0 24 24" id="mdt-info"><path d="M12 4c-4.41 0-8 3.59-8 8s3.59 8 8 8 8-3.59 8-8-3.59-8-8-8zm1 13h-2v-6h2v6zm0-8h-2V7h2v2z" opacity=".3"/><path d="M11 7h2v2h-2zm0 4h2v6h-2zm1-9C6.48 2 2 6.48 2 12s4.48 10 10 10 10-4.48 10-10S17.52 2 12 2zm0 18c-4.41 0-8-3.59-8-8s3.59-8 8-8 8 3.59 8 8-3.59 8-8 8z"/></symbol>
  <symbol viewBox="0 0 24 24" id="mdt-format_italic"><path d="M6 15v3h8v-3h-2.21l3.42-8H18V4h-8v3h2.21l-3.42 8z"/></symbol>
  <symbol viewBox="0 0 24 24" id="mdt-key"><path d="M21 10h-8.35A5.99 5.99 0 0 0 7 6c-3.31 0-6 2.69-6 6s2.69 6 6 6a5.99 5.99 0 0 0 5.65-4H13l2 2 2-2 2 2 4-4.04L21 10zM7 15c-1.65 0-3-1.35-3-3s1.35-3 3-3 3 1.35 3 3-1.35 3-3 3z"/></symbol>
  <symbol viewBox="0 0 24 24" id="mdt-keyboard"><path d="M4 17h16V7H4v10zm13-9h2v2h-2V8zm0 3h2v2h-2v-2zm-3-3h2v2h-2V8zm0 3h2v2h-2v-2zm-3-3h2v2h-2V8zm0 3h2v2h-2v-2zM8 8h2v2H8V8zm0 3h2v2H8v-2zm0 3h8v2H8v-2zM5 8h2v2H5V8zm0 3h2v2H5v-2z" opacity=".3"/><path d="M20 5H4c-1.1 0-1.99.9-1.99 2L2 17c0 1.1.9 2 2 2h16c1.1 0 2-.9 2-2V7c0-1.1-.9-2-2-2zm0 12H4V7h16v10zm-9-9h2v2h-2zm0 3h2v2h-2zM8 8h2v2H8zm0 3h2v2H8zm-3 0h2v2H5zm0-3h2v2H5zm3 6h8v2H8zm6-3h2v2h-2zm0-3h2v2h-2zm3 3h2v2h-2zm0-3h2v2h-2z"/></symbol>
  <symbol viewBox="0 0 24 24" id="mdt-layers"><path d="M6.26 9 12 13.47 17.74 9 12 4.53z" opacity=".3"/><path d="m19.37 12.8-7.38 5.74-7.37-5.73L3 14.07l9 7 9-7zM12 2 3 9l1.63 1.27L12 16l7.36-5.73L21 9l-9-7zm0 11.47L6.26 9 12 4.53 17.74 9 12 13.47z"/></symbol>
  <symbol viewBox="0 0 24 24" id="mdt-format_list_numbered"><path d="M5 13H3.2L5 10.9V10H2v1h1.8L2 13.1v.9h3zm2-8h14v2H7zM5 16H2v1h2v.5H3v1h1v.5H2v1h3zm2 1h14v2H7zM3 8h1V4H2v1h1zm4 3h14v2H7z"/></symbol>
  <symbol viewBox="0 0 24 24" id="mdt-format_list_bulleted"><path d="M7 5h14v2H7z"/><circle cx="4" cy="6" r="1.5"/><path d="M7 11h14v2H7zm0 6h14v2H7zm-3 2.5c.82 0 1.5-.68 1.5-1.5s-.67-1.5-1.5-1.5-1.5.68-1.5 1.5.68 1.5 1.5 1.5z"/><circle cx="4" cy="12" r="1.5"/></symbol>
  <symbol viewBox="0 0 24 24" id="mdt-list"><path d="M3 13h2v-2H3v2zm0 4h2v-2H3v2zm0-8h2V7H3v2zm4 4h14v-2H7v2zm0 4h14v-2H7v2zM7 7v2h14V7H7zm-4 6h2v-2H3v2zm0 4h2v-2H3v2zm0-8h2V7H3v2zm4 4h14v-2H7v2zm0 4h14v-2H7v2zM7 7v2h14V7H7z"/></symbol>
  <symbol viewBox="0 0 24 24" id="mdt-lock"><path d="M6 20h12V10H6v10zm6-7c1.1 0 2 .9 2 2s-.9 2-2 2-2-.9-2-2 .9-2 2-2z" opacity=".3"/><path d="M18 8h-1V6c0-2.76-2.24-5-5-5S7 3.24 7 6v2H6c-1.1 0-2 .9-2 2v10c0 1.1.9 2 2 2h12c1.1 0 2-.9 2-2V10c0-1.1-.9-2-2-2zM9 6c0-1.66 1.34-3 3-3s3 1.34 3 3v2H9V6zm9 14H6V10h12v10zm-6-3c1.1 0 2-.9 2-2s-.9-2-2-2-2 .9-2 2 .9 2 2 2z"/></symbol>
  <symbol viewBox="0 0 24 24" id="mdt-auto_fix_normal"><path d="m4.415 18.167 7.17-7.17 1.414 1.414-7.17 7.17z" opacity=".3"/><path d="m20 7 .94-2.06L23 4l-2.06-.94L20 1l-.94 2.06L17 4l2.06.94zm-2.29 2.12-2.83-2.83c-.2-.19-.45-.29-.71-.29-.26 0-.51.1-.71.29L2.29 17.46a.996.996 0 0 0 0 1.41l2.83 2.83c.2.2.45.3.71.3s.51-.1.71-.29l11.17-11.17c.39-.39.39-1.03 0-1.42zM5.83 19.59l-1.41-1.41L11.59 11 13 12.41l-7.17 7.18zM14.41 11 13 9.59l1.17-1.17 1.41 1.41L14.41 11z"/></symbol>
  <symbol viewBox="0 0 24 24" id="mdt-location_on"><path d="M12 4C9.24 4 7 6.24 7 9c0 2.85 2.92 7.21 5 9.88 2.11-2.69 5-7 5-9.88 0-2.76-2.24-5-5-5zm0 7.5a2.5 2.5 0 0 1 0-5 2.5 2.5 0 0 1 0 5z" opacity=".3"/><path d="M12 2C8.13 2 5 5.13 5 9c0 5.25 7 13 7 13s7-7.75 7-13c0-3.87-3.13-7-7-7zM7 9c0-2.76 2.24-5 5-5s5 2.24 5 5c0 2.88-2.88 7.19-5 9.88C9.92 16.21 7 11.85 7 9z"/><circle cx="12" cy="9" r="2.5"/></symbol>
  <symbol viewBox="0 0 24 24" id="mdt-mic_off"><path d="M12 3.7c-.66 0-1.2.54-1.2 1.2v1.51l2.39 2.39.01-3.9c0-.66-.54-1.2-1.2-1.2z" opacity=".3"/><path d="M19 11h-1.7c0 .58-.1 1.13-.27 1.64l1.27 1.27c.44-.88.7-1.87.7-2.91zM4.41 2.86 3 4.27l6 6V11c0 1.66 1.34 3 3 3 .23 0 .44-.03.65-.08l1.66 1.66c-.71.33-1.5.52-2.31.52-2.76 0-5.3-2.1-5.3-5.1H5c0 3.41 2.72 6.23 6 6.72V21h2v-3.28a7.13 7.13 0 0 0 2.55-.9l4.2 4.2 1.41-1.41L4.41 2.86zM10.8 4.9c0-.66.54-1.2 1.2-1.2s1.2.54 1.2 1.2l-.01 3.91L15 10.6V5c0-1.66-1.34-3-3-3-1.54 0-2.79 1.16-2.96 2.65l1.76 1.76V4.9z"/></symbol>
  <symbol viewBox="0 0 24 24" id="mdt-remove_circle"><path d="M12 4c-4.41 0-8 3.59-8 8s3.59 8 8 8 8-3.59 8-8-3.59-8-8-8zm5 9H7v-2h10v2z" opacity=".3"/><path d="M7 11h10v2H7zm5-9C6.48 2 2 6.48 2 12s4.48 10 10 10 10-4.48 10-10S17.52 2 12 2zm0 18c-4.41 0-8-3.59-8-8s3.59-8 8-8 8 3.59 8 8-3.59 8-8 8z"/></symbol>
  <symbol viewBox="0 0 24 24" id="mdt-remove"><path d="M19 13H5v-2h14v2z"/></symbol>
  <symbol viewBox="0 0 24 24" id="mdt-phone_iphone"><path d="M7 4h9v14H7z" opacity=".3"/><path d="M15.5 1h-8A2.5 2.5 0 0 0 5 3.5v17A2.5 2.5 0 0 0 7.5 23h8a2.5 2.5 0 0 0 2.5-2.5v-17A2.5 2.5 0 0 0 15.5 1zm-4 21c-.83 0-1.5-.67-1.5-1.5s.67-1.5 1.5-1.5 1.5.67 1.5 1.5-.67 1.5-1.5 1.5zm4.5-4H7V4h9v14z"/></symbol>
  <symbol viewBox="0 0 24 24" id="mdt-format_quote"><path d="M16.62 16h.76L19 12.76V8h-4v4h3.62zm-10 0h.76L9 12.76V8H5v4h3.62z" opacity=".3"/><path d="M18.62 18 21 13.24V6h-8v8h2.38l-2 4h5.24zM15 12V8h4v4.76L17.38 16h-.76l2-4H15zM3.38 18h5.24L11 13.24V6H3v8h2.38l-2 4zM5 12V8h4v4.76L7.38 16h-.76l2-4H5z"/></symbol>
  <symbol viewBox="0 0 24 24" id="mdt-emoji_events"><path d="M12 14c-1.65 0-3-1.35-3-3V5h6v6c0 1.65-1.35 3-3 3z" opacity=".3"/><path d="M19 5h-2V3H7v2H5c-1.1 0-2 .9-2 2v1c0 2.55 1.92 4.63 4.39 4.94A5.01 5.01 0 0 0 11 15.9V19H7v2h10v-2h-4v-3.1a5.01 5.01 0 0 0 3.61-2.96C19.08 12.63 21 10.55 21 8V7c0-1.1-.9-2-2-2zM5 8V7h2v3.82C5.84 10.4 5 9.3 5 8zm7 6c-1.65 0-3-1.35-3-3V5h6v6c0 1.65-1.35 3-3 3zm7-6c0 1.3-.84 2.4-2 2.82V7h2v1z"/></symbol>
  <symbol viewBox="0 0 24 24" id="mdt-group"><circle cx="9" cy="8.5" r="1.5" opacity=".3"/><path d="M4.34 17h9.32c-.84-.58-2.87-1.25-4.66-1.25s-3.82.67-4.66 1.25z" opacity=".3"/><path d="M9 12c1.93 0 3.5-1.57 3.5-3.5S10.93 5 9 5 5.5 6.57 5.5 8.5 7.07 12 9 12zm0-5c.83 0 1.5.67 1.5 1.5S9.83 10 9 10s-1.5-.67-1.5-1.5S8.17 7 9 7zm0 6.75c-2.34 0-7 1.17-7 3.5V19h14v-1.75c0-2.33-4.66-3.5-7-3.5zM4.34 17c.84-.58 2.87-1.25 4.66-1.25s3.82.67 4.66 1.25H4.34zm11.7-3.19c1.16.84 1.96 1.96 1.96 3.44V19h4v-1.75c0-2.02-3.5-3.17-5.96-3.44zM15 12c1.93 0 3.5-1.57 3.5-3.5S16.93 5 15 5c-.54 0-1.04.13-1.5.35.63.89 1 1.98 1 3.15s-.37 2.26-1 3.15c.46.22.96.35 1.5.35z"/></symbol>
  <symbol viewBox="0 0 24 24" id="mdt-groups"><path d="M8.07 16c.09-.23.13-.39.91-.69.97-.38 1.99-.56 3.02-.56s2.05.18 3.02.56c.77.3.81.46.91.69H8.07zM12 8c.55 0 1 .45 1 1s-.45 1-1 1-1-.45-1-1 .45-1 1-1" opacity=".3"/><path d="M4 13c1.1 0 2-.9 2-2s-.9-2-2-2-2 .9-2 2 .9 2 2 2zm1.13 1.1c-.37-.06-.74-.1-1.13-.1-.99 0-1.93.21-2.78.58A2.01 2.01 0 0 0 0 16.43V18h4.5v-1.61c0-.83.23-1.61.63-2.29zM20 13c1.1 0 2-.9 2-2s-.9-2-2-2-2 .9-2 2 .9 2 2 2zm4 3.43c0-.81-.48-1.53-1.22-1.85A6.95 6.95 0 0 0 20 14c-.39 0-.76.04-1.13.1.4.68.63 1.46.63 2.29V18H24v-1.57zm-7.76-2.78c-1.17-.52-2.61-.9-4.24-.9-1.63 0-3.07.39-4.24.9A2.988 2.988 0 0 0 6 16.39V18h12v-1.61c0-1.18-.68-2.26-1.76-2.74zM8.07 16c.09-.23.13-.39.91-.69.97-.38 1.99-.56 3.02-.56s2.05.18 3.02.56c.77.3.81.46.91.69H8.07zM12 8c.55 0 1 .45 1 1s-.45 1-1 1-1-.45-1-1 .45-1 1-1m0-2c-1.66 0-3 1.34-3 3s1.34 3 3 3 3-1.34 3-3-1.34-3-3-3z"/></symbol>
  <symbol viewBox="0 0 24 24" id="mdt-person_add"><path d="M15 16c-2.69 0-5.77 1.28-6 2h12c-.2-.71-3.3-2-6-2z" opacity=".3"/><circle cx="15" cy="8" r="2" opacity=".3"/><path d="M15 12c2.21 0 4-1.79 4-4s-1.79-4-4-4-4 1.79-4 4 1.79 4 4 4zm0-6c1.1 0 2 .9 2 2s-.9 2-2 2-2-.9-2-2 .9-2 2-2zm0 8c-2.67 0-8 1.34-8 4v2h16v-2c0-2.66-5.33-4-8-4zm-6 4c.22-.72 3.31-2 6-2 2.7 0 5.8 1.29 6 2H9zm-3-3v-3h3v-2H6V7H4v3H1v2h3v3z"/></symbol>
  <symbol viewBox="0 0 24 24" id="mdt-logout"><path d="M5 5h7V3H5c-1.1 0-2 .9-2 2v14c0 1.1.9 2 2 2h7v-2H5V5zm16 7-4-4v3H9v2h8v3l4-4z"/></symbol>
  <symbol viewBox="0 0 24 24" id="mdt-reply"><path d="M10 9V5l-7 7 7 7v-4.1c5 0 8.5 1.6 11 5.1-1-5-4-10-11-11z"/></symbol>
  <symbol viewBox="0 0 24 24" id="mdt-add"><path d="M19 13h-6v6h-2v-6H5v-2h6V5h2v6h6v2z"/></symbol>
  <symbol viewBox="0 0 24 24" id="mdt-brush"><path d="M8 17c0-.55-.45-1-1-1s-1 .45-1 1c0 .74-.19 1.4-.5 1.95.17.03.33.05.5.05 1.1 0 2-.9 2-2z" opacity=".3"/><path d="m11.75 15 8.96-8.96a.996.996 0 0 0 0-1.41l-1.34-1.34c-.2-.2-.45-.29-.7-.29s-.51.1-.71.29L9 12.25 11.75 15zM6 21c2.21 0 4-1.79 4-4 0-1.66-1.34-3-3-3s-3 1.34-3 3c0 1.31-1.16 2-2 2 .92 1.22 2.49 2 4 2zm0-4c0-.55.45-1 1-1s1 .45 1 1c0 1.1-.9 2-2 2-.17 0-.33-.02-.5-.05.31-.55.5-1.21.5-1.95z"/></symbol>
  <symbol viewBox="0 0 24 24" id="mdt-send"><path d="m4 8.25 7.51 1-7.5-3.22zm.01 9.72 7.5-3.22-7.51 1z" opacity=".3"/><path d="M2.01 3 2 10l15 2-15 2 .01 7L23 12 2.01 3zM4 8.25V6.03l7.51 3.22-7.51-1zm.01 9.72v-2.22l7.51-1-7.51 3.22z"/></symbol>
  <symbol viewBox="0 0 24 24" id="mdt-pause"><path d="M6 5h4v14H6zm8 0h4v14h-4z"/></symbol>
  <symbol viewBox="0 0 24 24" id="mdt-play_arrow"><path d="M10 8.64v6.72L15.27 12z" opacity=".3"/><path d="m8 19 11-7L8 5v14zm2-10.36L15.27 12 10 15.36V8.64z"/></symbol>
  <symbol viewBox="0 0 24 24" id="mdt-power"><path d="m8 13.65 3.5 3.52V19h1v-1.83l3.5-3.51V9H8z" opacity=".3"/><path d="M16 7V3h-2v4h-4V3H8v4h-.01C6.89 7 6 7.89 6 8.98v5.52L9.5 18v3h5v-3l3.5-3.5V9c0-1.1-.9-2-2-2zm0 6.66-3.5 3.51V19h-1v-1.83L8 13.65V9h8v4.66z"/></symbol>
  <symbol viewBox="0 0 24 24" id="mdt-add_circle"><path d="M12 4c-4.41 0-8 3.59-8 8s3.59 8 8 8 8-3.59 8-8-3.59-8-8-8zm5 9h-4v4h-2v-4H7v-2h4V7h2v4h4v2z" opacity=".3"/><path d="M13 7h-2v4H7v2h4v4h2v-4h4v-2h-4zm-1-5C6.48 2 2 6.48 2 12s4.48 10 10 10 10-4.48 10-10S17.52 2 12 2zm0 18c-4.41 0-8-3.59-8-8s3.59-8 8-8 8 3.59 8 8-3.59 8-8 8z"/></symbol>
  <symbol viewBox="0 0 24 24" id="mdt-add_box"><path d="M5 19h14V5H5v14zm2-8h4V7h2v4h4v2h-4v4h-2v-4H7v-2z" opacity=".3"/><path d="M19 3H5a2 2 0 0 0-2 2v14a2 2 0 0 0 2 2h14c1.1 0 2-.9 2-2V5c0-1.1-.9-2-2-2zm0 16H5V5h14v14zm-8-2h2v-4h4v-2h-4V7h-2v4H7v2h4z"/></symbol>
  <symbol viewBox="0 0 24 24" id="mdt-power_settings_new"><path d="M13 3h-2v10h2V3zm4.83 2.17-1.42 1.42A6.92 6.92 0 0 1 19 12c0 3.87-3.13 7-7 7A6.995 6.995 0 0 1 7.58 6.58L6.17 5.17A8.932 8.932 0 0 0 3 12a9 9 0 0 0 18 0c0-2.74-1.23-5.18-3.17-6.83z"/></symbol>
  <symbol viewBox="0 0 24 24" id="mdt-extension"><path d="M19 13h-2V7h-6V5c0-.28-.22-.5-.5-.5s-.5.22-.5.5v2H4l.01 2.12C5.76 9.8 7 11.51 7 13.5c0 1.99-1.25 3.7-3 4.38V20h2.12c.68-1.75 2.39-3 4.38-3 1.99 0 3.7 1.25 4.38 3H17v-6h2c.28 0 .5-.22.5-.5s-.22-.5-.5-.5z" opacity=".3"/><path d="M19 11V7c0-1.1-.9-2-2-2h-4a2.5 2.5 0 0 0-5 0H4c-1.1 0-1.99.9-1.99 2v3.8h.29c1.49 0 2.7 1.21 2.7 2.7s-1.21 2.7-2.7 2.7H2V20c0 1.1.9 2 2 2h3.8v-.3c0-1.49 1.21-2.7 2.7-2.7s2.7 1.21 2.7 2.7v.3H17c1.1 0 2-.9 2-2v-4a2.5 2.5 0 0 0 0-5zm0 3h-2v6h-2.12a4.71 4.71 0 0 0-4.38-3 4.71 4.71 0 0 0-4.38 3H4v-2.12c1.75-.68 3-2.39 3-4.38 0-1.99-1.24-3.7-2.99-4.38L4 7h6V5c0-.28.22-.5.5-.5s.5.22.5.5v2h6v6h2c.28 0 .5.22.5.5s-.22.5-.5.5z"/></symbol>
  <symbol viewBox="0 0 24 24" id="mdt-help_outline"><path d="M11 16h2v2h-2zm1-14C6.48 2 2 6.48 2 12s4.48 10 10 10 10-4.48 10-10S17.52 2 12 2zm0 18c-4.41 0-8-3.59-8-8s3.59-8 8-8 8 3.59 8 8-3.59 8-8 8zm0-14c-2.21 0-4 1.79-4 4h2c0-1.1.9-2 2-2s2 .9 2 2c0 2-3 1.75-3 5h2c0-2.25 3-2.5 3-5 0-2.21-1.79-4-4-4z"/></symbol>
  <symbol viewBox="0 0 24 24" id="mdt-question_mark"><path d="M11.07 12.85c.77-1.39 2.25-2.21 3.11-3.44.91-1.29.4-3.7-2.18-3.7-1.69 0-2.52 1.28-2.87 2.34L6.54 6.96C7.25 4.83 9.18 3 11.99 3c2.35 0 3.96 1.07 4.78 2.41.7 1.15 1.11 3.3.03 4.9-1.2 1.77-2.35 2.31-2.97 3.45-.25.46-.35.76-.35 2.24h-2.89c-.01-.78-.13-2.05.48-3.15zM14 20c0 1.1-.9 2-2 2s-2-.9-2-2 .9-2 2-2 2 .9 2 2z"/></symbol>
  <symbol viewBox="0 0 24 24" id="mdt-shuffle"><path d="M20 4h-5.5l2.04 2.04L4 18.59 5.41 20 17.96 7.46 20 9.5zM5.41 4 4 5.41l5.17 5.17 1.42-1.41zM20 20v-5.5l-2.04 2.04-3.13-3.13-1.41 1.41 3.13 3.13L14.5 20z"/></symbol>
  <symbol viewBox="0 0 24 24" id="mdt-redo"><path d="M18.4 10.6C16.55 8.99 14.15 8 11.5 8c-4.65 0-8.58 3.03-9.96 7.22L3.9 16a8.002 8.002 0 0 1 7.6-5.5c1.95 0 3.73.72 5.12 1.88L13 16h9V7l-3.6 3.6z"/></symbol>
  <symbol viewBox="0 0 24 24" id="mdt-rocket_launch"><path d="M6.71 18.71c-.28.28-2.17.76-2.17.76s.47-1.88.76-2.17c.17-.19.42-.3.7-.3a1.003 1.003 0 0 1 .71 1.71zm.7-7.88-1.91-.82 1.97-1.97 1.44.29c-.57.83-1.08 1.7-1.5 2.5zm6.58 7.67-.82-1.91c.8-.42 1.67-.93 2.49-1.5l.29 1.44-1.96 1.97zm6-14.49S16.44 3.32 11.76 8c-1.32 1.32-2.4 3.38-2.73 4.04l2.93 2.93c.65-.32 2.71-1.4 4.04-2.73 4.68-4.68 3.99-8.23 3.99-8.23zM15 11c-1.1 0-2-.9-2-2s.9-2 2-2 2 .9 2 2-.9 2-2 2z" opacity=".3"/><path d="M6 15c-.83 0-1.58.34-2.12.88C2.7 17.06 2 22 2 22s4.94-.7 6.12-1.88A2.996 2.996 0 0 0 6 15zm.71 3.71c-.28.28-2.17.76-2.17.76s.47-1.88.76-2.17c.17-.19.42-.3.7-.3a1.003 1.003 0 0 1 .71 1.71zm10.71-5.06c6.36-6.36 4.24-11.31 4.24-11.31S16.71.22 10.35 6.58l-2.49-.5a2.03 2.03 0 0 0-1.81.55L2 10.69l5 2.14L11.17 17l2.14 5 4.05-4.05c.47-.47.68-1.15.55-1.81l-.49-2.49zM7.41 10.83l-1.91-.82 1.97-1.97 1.44.29c-.57.83-1.08 1.7-1.5 2.5zm6.58 7.67-.82-1.91c.8-.42 1.67-.93 2.49-1.5l.29 1.44-1.96 1.97zM16 12.24c-1.32 1.32-3.38 2.4-4.04 2.73l-2.93-2.93c.32-.65 1.4-2.71 2.73-4.04 4.68-4.68 8.23-3.99 8.23-3.99s.69 3.55-3.99 8.23zM15 11c1.1 0 2-.9 2-2s-.9-2-2-2-2 .9-2 2 .9 2 2 2z"/></symbol>
  <symbol viewBox="0 0 24 24" id="mdt-save"><path d="M5 5v14h14V7.83L16.17 5H5zm7 13c-1.66 0-3-1.34-3-3s1.34-3 3-3 3 1.34 3 3-1.34 3-3 3zm3-8H6V6h9v4z" opacity=".3"/><path d="M17 3H5a2 2 0 0 0-2 2v14a2 2 0 0 0 2 2h14c1.1 0 2-.9 2-2V7l-4-4zm2 16H5V5h11.17L19 7.83V19zm-7-7c-1.66 0-3 1.34-3 3s1.34 3 3 3 3-1.34 3-3-1.34-3-3-3zM6 6h9v4H6z"/></symbol>
  <symbol viewBox="0 0 24 24" id="mdt-search"><path d="M15.5 14h-.79l-.28-.27A6.471 6.471 0 0 0 16 9.5 6.5 6.5 0 1 0 9.5 16c1.61 0 3.09-.59 4.23-1.57l.27.28v.79l5 4.99L20.49 19l-4.99-5zm-6 0C7.01 14 5 11.99 5 9.5S7.01 5 9.5 5 14 7.01 14 9.5 11.99 14 9.5 14z"/></symbol>
  <symbol viewBox="0 0 24 24" id="mdt-share"><circle cx="18" cy="5" r="1" opacity=".3"/><circle cx="6" cy="12" r="1" opacity=".3"/><circle cx="18" cy="19.02" r="1" opacity=".3"/><path d="M18 16.08c-.76 0-1.44.3-1.96.77L8.91 12.7c.05-.23.09-.46.09-.7s-.04-.47-.09-.7l7.05-4.11c.54.5 1.25.81 2.04.81 1.66 0 3-1.34 3-3s-1.34-3-3-3-3 1.34-3 3c0 .24.04.47.09.7L8.04 9.81C7.5 9.31 6.79 9 6 9c-1.66 0-3 1.34-3 3s1.34 3 3 3c.79 0 1.5-.31 2.04-.81l7.12 4.16c-.05.21-.08.43-.08.65 0 1.61 1.31 2.92 2.92 2.92s2.92-1.31 2.92-2.92c0-1.61-1.31-2.92-2.92-2.92zM18 4c.55 0 1 .45 1 1s-.45 1-1 1-1-.45-1-1 .45-1 1-1zM6 13c-.55 0-1-.45-1-1s.45-1 1-1 1 .45 1 1-.45 1-1 1zm12 7.02c-.55 0-1-.45-1-1s.45-1 1-1 1 .45 1 1-.45 1-1 1z"/></symbol>
  <symbol viewBox="0 0 24 24" id="mdt-security"><path d="M12 3.19 5 6.3V12h7v8.93c3.72-1.15 6.47-4.82 7-8.94h-7v-8.8z" opacity=".3"/><path d="M12 1 3 5v6c0 5.55 3.84 10.74 9 12 5.16-1.26 9-6.45 9-12V5l-9-4zm0 19.93V12H5V6.3l7-3.11v8.8h7c-.53 4.12-3.28 7.79-7 8.94z"/></symbol>
  <symbol viewBox="0 0 24 24" id="mdt-shield"><path d="M6 6.39v4.7c0 4 2.55 7.7 6 8.83 3.45-1.13 6-4.82 6-8.83v-4.7l-6-2.25-6 2.25z" opacity=".3"/><path d="M12 2 4 5v6.09c0 5.05 3.41 9.76 8 10.91 4.59-1.15 8-5.86 8-10.91V5l-8-3zm6 9.09c0 4-2.55 7.7-6 8.83-3.45-1.13-6-4.82-6-8.83v-4.7l6-2.25 6 2.25v4.7z"/></symbol>
  <symbol viewBox="0 0 24 24" id="mdt-login"><path d="M11 7 9.6 8.4l2.6 2.6H2v2h10.2l-2.6 2.6L11 17l5-5-5-5zm9 12h-8v2h8c1.1 0 2-.9 2-2V5c0-1.1-.9-2-2-2h-8v2h8v14z"/></symbol>
  <symbol viewBox="0 0 24 24" id="mdt-signal_cellular_alt"><path d="M17 4h3v16h-3V4zM5 14h3v6H5v-6zm6-5h3v11h-3V9z"/></symbol>
  <symbol viewBox="0 0 24 24" id="mdt-tune"><path d="M3 5h10v2H3zm4 6H3v2h4v2h2V9H7zm6 4h-2v6h2v-2h8v-2h-8zM3 17h6v2H3zm8-6h10v2H11zm6-8h-2v6h2V7h4V5h-4z"/></symbol>
  <symbol viewBox="0 0 24 24" id="mdt-mood"><path d="M12 4c-4.42 0-8 3.58-8 8s3.58 8 8 8 8-3.58 8-8-3.58-8-8-8zm3.5 4c.83 0 1.5.67 1.5 1.5s-.67 1.5-1.5 1.5-1.5-.67-1.5-1.5.67-1.5 1.5-1.5zm-7 0c.83 0 1.5.67 1.5 1.5S9.33 11 8.5 11 7 10.33 7 9.5 7.67 8 8.5 8zm3.5 9.5c-2.33 0-4.31-1.46-5.11-3.5h10.22c-.8 2.04-2.78 3.5-5.11 3.5z" opacity=".3"/><circle cx="8.5" cy="9.5" r="1.5"/><path d="M11.99 2C6.47 2 2 6.48 2 12s4.47 10 9.99 10C17.52 22 22 17.52 22 12S17.52 2 11.99 2zM12 20c-4.42 0-8-3.58-8-8s3.58-8 8-8 8 3.58 8 8-3.58 8-8 8z"/><circle cx="15.5" cy="9.5" r="1.5"/><path d="M12 17.5c2.33 0 4.31-1.46 5.11-3.5H6.89c.8 2.04 2.78 3.5 5.11 3.5z"/></symbol>
  <symbol viewBox="0 0 24 24" id="mdt-sort"><path d="M3 18h6v-2H3v2zM3 6v2h18V6H3zm0 7h12v-2H3v2z"/></symbol>
  <symbol viewBox="0 0 24 24" id="mdt-pending"><path d="M12 4c-4.42 0-8 3.58-8 8s3.58 8 8 8 8-3.58 8-8-3.58-8-8-8zm-5 9.5c-.83 0-1.5-.67-1.5-1.5s.67-1.5 1.5-1.5 1.5.67 1.5 1.5-.67 1.5-1.5 1.5zm5 0c-.83 0-1.5-.67-1.5-1.5s.67-1.5 1.5-1.5 1.5.67 1.5 1.5-.67 1.5-1.5 1.5zm5 0c-.83 0-1.5-.67-1.5-1.5s.67-1.5 1.5-1.5 1.5.67 1.5 1.5-.67 1.5-1.5 1.5z" opacity=".3"/><path d="M12 2C6.48 2 2 6.48 2 12s4.48 10 10 10 10-4.48 10-10S17.52 2 12 2zm0 18c-4.42 0-8-3.58-8-8s3.58-8 8-8 8 3.58 8 8-3.58 8-8 8z"/><circle cx="7" cy="12" r="1.5"/><circle cx="12" cy="12" r="1.5"/><circle cx="17" cy="12" r="1.5"/></symbol>
  <symbol viewBox="0 0 24 24" id="mdt-approval"><path d="M6 16h12v2H6zm6-12c-1.66 0-3 1.34-3 3l3 4 3-4c0-1.66-1.34-3-3-3z" opacity=".3"/><path d="M12 2C9.24 2 7 4.24 7 7l5 7 5-7c0-2.76-2.24-5-5-5zm0 9L9 7c0-1.66 1.34-3 3-3s3 1.34 3 3l-3 4zm6 3H6c-1.1 0-2 .9-2 2v6h16v-6c0-1.1-.9-2-2-2zm0 4H6v-2h12v2z"/></symbol>
  <symbol viewBox="0 0 24 24" id="mdt-star"><path d="m12 15.4-3.76 2.27 1-4.28-3.32-2.88 4.38-.38L12 6.1l1.71 4.04 4.38.38-3.32 2.88 1 4.28z" opacity=".3"/><path d="m22 9.24-7.19-.62L12 2 9.19 8.63 2 9.24l5.46 4.73L5.82 21 12 17.27 18.18 21l-1.63-7.03L22 9.24zM12 15.4l-3.76 2.27 1-4.28-3.32-2.88 4.38-.38L12 6.1l1.71 4.04 4.38.38-3.32 2.88 1 4.28L12 15.4z"/></symbol>
  <symbol viewBox="0 0 24 24" id="mdt-skip_previous"><path d="M16 14.14V9.86L12.97 12z" opacity=".3"/><path d="M6 6h2v12H6zm12 12V6l-8.5 6 8.5 6zm-2-3.86L12.97 12 16 9.86v4.28z"/></symbol>
  <symbol viewBox="0 0 24 24" id="mdt-skip_next"><path d="M8 9.86v4.28L11.03 12z" opacity=".3"/><path d="M14.5 12 6 6v12l8.5-6zM8 9.86 11.03 12 8 14.14V9.86zM16 6h2v12h-2z"/></symbol>
  <symbol viewBox="0 0 24 24" id="mdt-clear_all"><path d="M5 11h14v2H5zm-2 4h14v2H3zm4-8h14v2H7z"/></symbol>
  <symbol viewBox="0 0 24 24" id="mdt-sync"><path d="M12.01 4V1l-4 4 4 4V6c3.31 0 6 2.69 6 6 0 1.01-.25 1.97-.7 2.8l1.46 1.46A7.93 7.93 0 0 0 20.01 12c0-4.42-3.58-8-8-8zm0 14c-3.31 0-6-2.69-6-6 0-1.01.25-1.97.7-2.8L5.25 7.74A7.93 7.93 0 0 0 4.01 12c0 4.42 3.58 8 8 8v3l4-4-4-4v3z"/></symbol>
  <symbol viewBox="0 0 24 24" id="mdt-table_chart"><path d="M5 5h15v3H5zm12 5h3v9h-3zm-7 0h5v9h-5zm-5 0h3v9H5z" opacity=".3"/><path d="M20 3H5c-1.1 0-2 .9-2 2v14c0 1.1.9 2 2 2h15c1.1 0 2-.9 2-2V5c0-1.1-.9-2-2-2zM8 19H5v-9h3v9zm7 0h-5v-9h5v9zm5 0h-3v-9h3v9zm0-11H5V5h15v3z"/></symbol>
  <symbol viewBox="0 0 24 24" id="mdt-sell"><path d="M4 4v7.17L12.83 20 20 12.83 11.17 4H4zm2.5 4C5.67 8 5 7.33 5 6.5S5.67 5 6.5 5 8 5.67 8 6.5 7.33 8 6.5 8z" opacity=".3"/><path d="m21.41 11.41-8.83-8.83c-.37-.37-.88-.58-1.41-.58H4c-1.1 0-2 .9-2 2v7.17c0 .53.21 1.04.59 1.41l8.83 8.83c.78.78 2.05.78 2.83 0l7.17-7.17c.78-.78.78-2.04-.01-2.83zM12.83 20 4 11.17V4h7.17L20 12.83 12.83 20z"/><circle cx="6.5" cy="6.5" r="1.5"/></symbol>
  <symbol viewBox="0 0 24 24" id="mdt-checklist"><path d="M22 7h-9v2h9V7zm0 8h-9v2h9v-2zM5.54 11 2 7.46l1.41-1.41 2.12 2.12 4.24-4.24 1.41 1.41L5.54 11zm0 8L2 15.46l1.41-1.41 2.12 2.12 4.24-4.24 1.41 1.41L5.54 19z"/></symbol>
  <symbol viewBox="0 0 24 24" id="mdt-device_thermostat"><path d="M15 13V5c0-1.66-1.34-3-3-3S9 3.34 9 5v8c-1.21.91-2 2.37-2 4 0 2.76 2.24 5 5 5s5-2.24 5-5c0-1.63-.79-3.09-2-4zm-4-2V5c0-.55.45-1 1-1s1 .45 1 1v1h-1v1h1v2h-1v1h1v1h-2z"/></symbol>
  <symbol viewBox="0 0 24 24" id="mdt-push_pin"><path d="M14 4h-4v5c0 1.1-.35 2.14-1 3h6c-.63-.84-1-1.88-1-3V4z" opacity=".3"/><path d="M19 12c-1.66 0-3-1.34-3-3V4h1c.55 0 1-.45 1-1s-.45-1-1-1H7c-.55 0-1 .45-1 1s.45 1 1 1h1v5c0 1.66-1.34 3-3 3v2h5.97v7l1 1 1-1v-7H19v-2zM9 12c.65-.86 1-1.9 1-3V4h4v5c0 1.12.37 2.16 1 3H9z"/></symbol>
  <symbol viewBox="0 0 24 24" id="mdt-confirmation_number"><path d="M4.01 8.54C5.2 9.23 6 10.52 6 12s-.81 2.77-2 3.46V18h16v-2.54c-1.19-.69-2-1.99-2-3.46s.81-2.77 2-3.46V6H4l.01 2.54zM11 7h2v2h-2V7zm0 4h2v2h-2v-2zm0 4h2v2h-2v-2z" opacity=".3"/><path d="M22 10V6a2 2 0 0 0-2-2H4c-1.1 0-1.99.89-1.99 2v4c1.1 0 1.99.9 1.99 2s-.89 2-2 2v4c0 1.1.9 2 2 2h16c1.1 0 2-.9 2-2v-4c-1.1 0-2-.9-2-2s.9-2 2-2zm-2-1.46c-1.19.69-2 1.99-2 3.46s.81 2.77 2 3.46V18H4v-2.54c1.19-.69 2-1.99 2-3.46 0-1.48-.8-2.77-1.99-3.46L4 6h16v2.54zM11 15h2v2h-2zm0-4h2v2h-2zm0-4h2v2h-2z"/></symbol>
  <symbol viewBox="0 0 24 24" id="mdt-highlight_off"><path d="M12 4c-4.41 0-8 3.59-8 8s3.59 8 8 8 8-3.59 8-8-3.59-8-8-8zm4 10.59L14.59 16 12 13.41 9.41 16 8 14.59 10.59 12 8 9.41 9.41 8 12 10.59 14.59 8 16 9.41 13.41 12 16 14.59z" opacity=".3"/><path d="M14.59 8 12 10.59 9.41 8 8 9.41 10.59 12 8 14.59 9.41 16 12 13.41 14.59 16 16 14.59 13.41 12 16 9.41zM12 2C6.47 2 2 6.47 2 12s4.47 10 10 10 10-4.47 10-10S17.53 2 12 2zm0 18c-4.41 0-8-3.59-8-8s3.59-8 8-8 8 3.59 8 8-3.59 8-8 8z"/></symbol>
  <symbol viewBox="0 0 24 24" id="mdt-close"><path d="M19 6.41 17.59 5 12 10.59 6.41 5 5 6.41 10.59 12 5 17.59 6.41 19 12 13.41 17.59 19 19 17.59 13.41 12 19 6.41z"/></symbol>
  <symbol viewBox="0 0 24 24" id="mdt-toggle_off"><path d="M17 8H7c-2.21 0-4 1.79-4 4s1.79 4 4 4h10c2.21 0 4-1.79 4-4s-1.79-4-4-4zM7 15c-1.66 0-3-1.34-3-3s1.34-3 3-3 3 1.34 3 3-1.34 3-3 3z" opacity=".3"/><path d="M17 6H7c-3.31 0-6 2.69-6 6s2.69 6 6 6h10c3.31 0 6-2.69 6-6s-2.69-6-6-6zm0 10H7c-2.21 0-4-1.79-4-4s1.79-4 4-4h10c2.21 0 4 1.79 4 4s-1.79 4-4 4zM7 9c-1.66 0-3 1.34-3 3s1.34 3 3 3 3-1.34 3-3-1.34-3-3-3z"/></symbol>
  <symbol viewBox="0 0 24 24" id="mdt-toggle_on"><path d="M17 8H7c-2.21 0-4 1.79-4 4s1.79 4 4 4h10c2.21 0 4-1.79 4-4s-1.79-4-4-4zm0 7c-1.66 0-3-1.34-3-3s1.34-3 3-3 3 1.34 3 3-1.34 3-3 3z" opacity=".3"/><path d="M17 6H7c-3.31 0-6 2.69-6 6s2.69 6 6 6h10c3.31 0 6-2.69 6-6s-2.69-6-6-6zm0 10H7c-2.21 0-4-1.79-4-4s1.79-4 4-4h10c2.21 0 4 1.79 4 4s-1.79 4-4 4zm0-7c-1.66 0-3 1.34-3 3s1.34 3 3 3 3-1.34 3-3-1.34-3-3-3z"/></symbol>
  <symbol viewBox="0 0 24 24" id="mdt-undo"><path d="M12.5 8c-2.65 0-5.05.99-6.9 2.6L2 7v9h9l-3.62-3.62c1.39-1.16 3.16-1.88 5.12-1.88 3.54 0 6.55 2.31 7.6 5.5l2.37-.78C21.08 11.03 17.15 8 12.5 8z"/></symbol>
  <symbol viewBox="0 0 24 24" id="mdt-link_off"><path d="M14.39 11 16 12.61V11zM17 7h-4v1.9h4c1.71 0 3.1 1.39 3.1 3.1 0 1.27-.77 2.37-1.87 2.84l1.4 1.4A4.986 4.986 0 0 0 22 12c0-2.76-2.24-5-5-5zM2 4.27l3.11 3.11A4.991 4.991 0 0 0 2 12c0 2.76 2.24 5 5 5h4v-1.9H7c-1.71 0-3.1-1.39-3.1-3.1 0-1.59 1.21-2.9 2.76-3.07L8.73 11H8v2h2.73L13 15.27V17h1.73l4.01 4.01 1.41-1.41L3.41 2.86 2 4.27z"/></symbol>
  <symbol viewBox="0 0 24 24" id="mdt-lock_open"><path d="M6 20h12V10H6v10zm6-7c1.1 0 2 .9 2 2s-.9 2-2 2-2-.9-2-2 .9-2 2-2z" opacity=".3"/><path d="M18 8h-1V6c0-2.76-2.24-5-5-5S7 3.24 7 6h2c0-1.66 1.34-3 3-3s3 1.34 3 3v2H6c-1.1 0-2 .9-2 2v10c0 1.1.9 2 2 2h12c1.1 0 2-.9 2-2V10c0-1.1-.9-2-2-2zm0 12H6V10h12v10zm-6-3c1.1 0 2-.9 2-2s-.9-2-2-2-2 .9-2 2 .9 2 2 2z"/></symbol>
  <symbol viewBox="0 0 24 24" id="mdt-file_upload"><path d="M9.83 8H11v6h2V8h1.17L12 5.83z" opacity=".3"/><path d="M5 18h14v2H5zm0-8h4v6h6v-6h4l-7-7-7 7zm8-2v6h-2V8H9.83L12 5.83 14.17 8H13z"/></symbol>
  <symbol viewBox="0 0 24 24" id="mdt-manage_accounts"><circle cx="10" cy="8" r="2" opacity=".3"/><path d="M10 16c0-.34.03-.67.08-.99-.03-.01-.05-.01-.08-.01-1.97 0-3.9.53-5.59 1.54-.25.14-.41.46-.41.81V18h6.29c-.19-.63-.29-1.3-.29-2z" opacity=".3"/><path d="M4 18v-.65c0-.34.16-.66.41-.81C6.1 15.53 8.03 15 10 15c.03 0 .05 0 .08.01.1-.7.3-1.37.59-1.98-.22-.02-.44-.03-.67-.03-2.42 0-4.68.67-6.61 1.82-.88.52-1.39 1.5-1.39 2.53V20h9.26c-.42-.6-.75-1.28-.97-2H4zm6-6c2.21 0 4-1.79 4-4s-1.79-4-4-4-4 1.79-4 4 1.79 4 4 4zm0-6c1.1 0 2 .9 2 2s-.9 2-2 2-2-.9-2-2 .9-2 2-2zm10.83 6.63-1.45.49c-.32-.27-.68-.48-1.08-.63L18 11h-2l-.3 1.49c-.4.15-.76.36-1.08.63l-1.45-.49-1 1.73 1.14 1c-.03.21-.06.41-.06.63s.03.42.06.63l-1.14 1 1 1.73 1.45-.49c.32.27.68.48 1.08.63L16 21h2l.3-1.49c.4-.15.76-.36 1.08-.63l1.45.49 1-1.73-1.14-1c.03-.21.06-.41.06-.63s-.03-.42-.06-.63l1.14-1-1-1.75zM17 18c-1.1 0-2-.9-2-2s.9-2 2-2 2 .9 2 2-.9 2-2 2z"/></symbol>
  <symbol viewBox="0 0 24 24" id="mdt-people"><circle cx="9" cy="8.5" r="1.5" opacity=".3"/><path d="M4.34 17h9.32c-.84-.58-2.87-1.25-4.66-1.25s-3.82.67-4.66 1.25z" opacity=".3"/><path d="M9 12c1.93 0 3.5-1.57 3.5-3.5S10.93 5 9 5 5.5 6.57 5.5 8.5 7.07 12 9 12zm0-5c.83 0 1.5.67 1.5 1.5S9.83 10 9 10s-1.5-.67-1.5-1.5S8.17 7 9 7zm0 6.75c-2.34 0-7 1.17-7 3.5V19h14v-1.75c0-2.33-4.66-3.5-7-3.5zM4.34 17c.84-.58 2.87-1.25 4.66-1.25s3.82.67 4.66 1.25H4.34zm11.7-3.19c1.16.84 1.96 1.96 1.96 3.44V19h4v-1.75c0-2.02-3.5-3.17-5.96-3.44zM15 12c1.93 0 3.5-1.57 3.5-3.5S16.93 5 15 5c-.54 0-1.04.13-1.5.35.63.89 1 1.98 1 3.15s-.37 2.26-1 3.15c.46.22.96.35 1.5.35z"/></symbol>
  <symbol viewBox="0 0 24 24" id="mdt-person_off"><path d="m15.17 18-3-3H12c-2.37 0-4.29.73-5.48 1.34-.32.16-.52.5-.52.88V18h9.17zM10.13 7.3A1.99 1.99 0 0 1 12 6c1.1 0 2 .9 2 2 0 .86-.54 1.59-1.3 1.87" opacity=".3"/><path d="m20 17.17-3.37-3.38c.64.22 1.23.48 1.77.76.97.51 1.58 1.52 1.6 2.62zm1.19 4.02-1.41 1.41-2.61-2.6H4v-2.78c0-1.12.61-2.15 1.61-2.66 1.29-.66 2.87-1.22 4.67-1.45L1.39 4.22 2.8 2.81l18.39 18.38zM15.17 18l-3-3H12c-2.37 0-4.29.73-5.48 1.34-.32.16-.52.5-.52.88V18h9.17zM12 6c1.1 0 2 .9 2 2 0 .86-.54 1.59-1.3 1.87l1.48 1.48a3.999 3.999 0 1 0-5.53-5.53l1.48 1.48A1.99 1.99 0 0 1 12 6z"/></symbol>
  <symbol viewBox="0 0 24 24" id="mdt-admin_panel_settings"><path d="m16 7.58-5.5-2.4L5 7.58v3.6c0 3.5 2.33 6.74 5.5 7.74.25-.08.49-.2.73-.3-.15-.51-.23-1.06-.23-1.62 0-2.97 2.16-5.43 5-5.91V7.58z" opacity=".3"/><path d="M17 13c-2.21 0-4 1.79-4 4s1.79 4 4 4 4-1.79 4-4-1.79-4-4-4zm0 1.38c.62 0 1.12.51 1.12 1.12s-.51 1.12-1.12 1.12-1.12-.51-1.12-1.12.5-1.12 1.12-1.12zm0 5.37c-.93 0-1.74-.46-2.24-1.17.05-.72 1.51-1.08 2.24-1.08s2.19.36 2.24 1.08c-.5.71-1.31 1.17-2.24 1.17z" opacity=".3"/><circle cx="17" cy="15.5" r="1.12"/><path d="M18 11.09V6.27L10.5 3 3 6.27v4.91c0 4.54 3.2 8.79 7.5 9.82.55-.13 1.08-.32 1.6-.55A5.973 5.973 0 0 0 17 23c3.31 0 6-2.69 6-6 0-2.97-2.16-5.43-5-5.91zM11 17c0 .56.08 1.11.23 1.62-.24.11-.48.22-.73.3-3.17-1-5.5-4.24-5.5-7.74v-3.6l5.5-2.4 5.5 2.4v3.51c-2.84.48-5 2.94-5 5.91zm6 4c-2.21 0-4-1.79-4-4s1.79-4 4-4 4 1.79 4 4-1.79 4-4 4z"/><path d="M17 17.5c-.73 0-2.19.36-2.24 1.08.5.71 1.32 1.17 2.24 1.17s1.74-.46 2.24-1.17c-.05-.72-1.51-1.08-2.24-1.08z"/></symbol>
  <symbol viewBox="0 0 24 24" id="mdt-person_remove"><path d="M10 16c2.69 0 5.77 1.28 6 2H4c.2-.71 3.3-2 6-2z" opacity=".3"/><circle cx="10" cy="8" r="2" opacity=".3"/><path d="M14 8c0-2.21-1.79-4-4-4S6 5.79 6 8s1.79 4 4 4 4-1.79 4-4zm-2 0c0 1.1-.9 2-2 2s-2-.9-2-2 .9-2 2-2 2 .9 2 2zM2 18v2h16v-2c0-2.66-5.33-4-8-4s-8 1.34-8 4zm2 0c.2-.71 3.3-2 6-2 2.69 0 5.77 1.28 6 2H4zm13-8h6v2h-6z"/></symbol>
  <symbol viewBox="0 0 24 24" id="mdt-person"><path d="M12 16c-2.69 0-5.77 1.28-6 2h12c-.2-.71-3.3-2-6-2z" opacity=".3"/><circle cx="12" cy="8" r="2" opacity=".3"/><path d="M12 14c-2.67 0-8 1.34-8 4v2h16v-2c0-2.66-5.33-4-8-4zm-6 4c.22-.72 3.31-2 6-2 2.7 0 5.8 1.29 6 2H6zm6-6c2.21 0 4-1.79 4-4s-1.79-4-4-4-4 1.79-4 4 1.79 4 4 4zm0-6c1.1 0 2 .9 2 2s-.9 2-2 2-2-.9-2-2 .9-2 2-2z"/></symbol>
  <symbol viewBox="0 0 24 24" id="mdt-build"><path d="M11.92 8.28c.24-1.4-.16-2.89-1.24-3.96-.94-.95-2.2-1.39-3.44-1.32l3.09 3.09-4.24 4.24L3 7.24c-.07 1.24.37 2.49 1.31 3.44a4.472 4.472 0 0 0 3.83 1.25c.71-.1 1.4-.38 2-.82l9.46 9.46.88-.88-9.45-9.45c.47-.6.77-1.26.89-1.96z" opacity=".3"/><path d="M22.61 18.97 13.54 9.9c.93-2.34.45-5.1-1.44-7C9.8.6 6.22.39 3.67 2.25L7.5 6.08 6.08 7.5 2.25 3.67a6.487 6.487 0 0 0 .65 8.42c1.86 1.86 4.57 2.35 6.89 1.48l9.11 9.11c.39.39 1.02.39 1.41 0l2.3-2.3c.4-.38.4-1.02 0-1.41zm-3 1.6-9.46-9.46c-.61.45-1.29.72-2 .82-1.36.2-2.79-.21-3.83-1.25-.95-.94-1.39-2.2-1.32-3.44l3.09 3.09 4.24-4.24L7.24 3c1.24-.07 2.49.37 3.44 1.31a4.469 4.469 0 0 1 1.24 3.96c-.12.7-.42 1.36-.88 1.95l9.45 9.45-.88.9z"/></symbol>
</svg>
